<?xml version="1.0" encoding="iso-8859-1"?>
<!-- Generator: Adobe Illustrator 19.0.0, SVG Export Plug-In . SVG Version: 6.00 Build 0)  -->
<svg version="1.1" id="Layer_1" xmlns="http://www.w3.org/2000/svg" xmlns:xlink="http://www.w3.org/1999/xlink" x="0px" y="0px"
	 viewBox="0 0 512 512" style="enable-background:new 0 0 512 512;" xml:space="preserve">
<path style="fill:#FFDDA6;" d="M493.885,421.406v42.519c0,10.855-4.398,20.68-11.51,27.792c-7.112,7.112-16.937,11.51-27.792,11.51
	H136.051c10.855,0,20.657-4.398,27.78-11.51c7.1-7.112,11.498-16.926,11.498-27.792v-11.44V421.92
	c0-10.422-7.884-19.417-18.282-20.119c-0.468-0.035-0.912-0.047-1.369-0.047h259.603h58.953c5.416,0,10.328,2.199,13.896,5.755
	C491.686,411.066,493.885,415.99,493.885,421.406z"/>
<g>
	<path style="fill:#DDB57C;" d="M175.329,421.92v30.564h-39.302v-31.079c0-5.416,2.199-10.34,5.755-13.896
		c3.556-3.556,8.48-5.755,13.896-5.755c0.456,0,0.901,0.012,1.369,0.047C167.446,402.503,175.329,411.498,175.329,421.92z"/>
	<path style="fill:#DDB57C;" d="M96.726,47.231v62.965H18.11V48.073c0-10.855,4.41-20.68,11.51-27.792
		c7.299-7.287,17.452-11.732,28.658-11.498c10.621,0,20.224,4.304,27.184,11.264C92.421,27.007,96.726,36.622,96.726,47.231z"/>
</g>
<path style="fill:#FFDDA6;" d="M415.281,47.22v354.535H155.679c-5.416,0-10.34,2.199-13.896,5.755
	c-3.556,3.556-5.755,8.48-5.755,13.896v31.079h39.302v11.44c0,10.866-4.398,20.68-11.498,27.792
	c-7.123,7.112-16.926,11.51-27.78,11.51c-0.012,0-0.012,0-0.023,0c-0.281,0-0.573,0-0.854-0.012
	c-21.499-0.456-38.448-18.575-38.448-40.074V288.844V110.196V47.231c0-10.609-4.304-20.224-11.264-27.184
	c-6.96-6.96-16.563-11.264-27.184-11.264l38.448-0.012h280.096C398.063,8.772,415.281,25.99,415.281,47.22z"/>
<g>
	<path style="fill:#FFFFFF;" d="M388.926,372.23c-4.845,0-8.773-3.928-8.773-8.773V109.061c0-4.845,3.928-8.773,8.773-8.773
		s8.773,3.928,8.773,8.773v254.396C397.698,368.303,393.77,372.23,388.926,372.23z"/>
	<path style="fill:#FFFFFF;" d="M467.291,473.99c-4.845,0-8.773-3.928-8.773-8.773v-33.335c0-4.845,3.928-8.773,8.773-8.773
		c4.845,0,8.773,3.928,8.773,8.773v33.335C476.063,470.062,472.136,473.99,467.291,473.99z"/>
	<circle style="fill:#FFFFFF;" cx="388.924" cy="77.481" r="8.773"/>
</g>
<g>
	<path style="fill:#333333;" d="M147.463,228.194h217.076c4.845,0,8.773-3.928,8.773-8.773c0-4.845-3.928-8.773-8.773-8.773H147.463
		c-4.845,0-8.773,3.928-8.773,8.773C138.69,224.266,142.618,228.194,147.463,228.194z"/>
	<path style="fill:#333333;" d="M147.463,188.651h217.076c4.845,0,8.773-3.928,8.773-8.773c0-4.845-3.928-8.773-8.773-8.773H147.463
		c-4.845,0-8.773,3.928-8.773,8.773C138.69,184.723,142.618,188.651,147.463,188.651z"/>
	<path style="fill:#333333;" d="M147.463,149.108h217.076c4.845,0,8.773-3.928,8.773-8.773c0-4.845-3.928-8.773-8.773-8.773H147.463
		c-4.845,0-8.773,3.928-8.773,8.773C138.69,145.181,142.618,149.108,147.463,149.108z"/>
	<path style="fill:#333333;" d="M147.463,109.566h147.041c4.845,0,8.773-3.928,8.773-8.773s-3.928-8.773-8.773-8.773H147.463
		c-4.845,0-8.773,3.928-8.773,8.773S142.618,109.566,147.463,109.566z"/>
	<path style="fill:#333333;" d="M197.399,375.076c32.373,0,58.709-26.338,58.709-58.711s-26.337-58.709-58.709-58.709
		s-58.711,26.337-58.711,58.709S165.027,375.076,197.399,375.076z M206.166,330.652l17.438,17.438
		c-4.969,4.112-10.919,7.073-17.438,8.493V330.652z M188.621,356.579c-6.513-1.421-12.457-4.381-17.423-8.488l17.423-17.417V356.579
		z M238.564,316.366c0,6.377-1.459,12.421-4.058,17.813l-28.341-28.341v-29.689C224.665,280.18,238.564,296.676,238.564,316.366z
		 M188.621,276.154v29.712l-28.327,28.317c-2.6-5.393-4.059-11.438-4.059-17.816C156.235,296.681,170.127,280.188,188.621,276.154z"
		/>
	<path style="fill:#333333;" d="M494.328,401.307c-5.371-5.371-12.508-8.329-20.095-8.329h-50.184V47.222
		C424.049,21.183,402.865,0,376.826,0H96.721L58.272,0.009l0,0C45.133-0.227,32.743,4.767,23.41,14.081
		C14.339,23.172,9.342,35.245,9.342,48.077v62.121c0,4.845,3.928,8.773,8.773,8.773h69.836v344.165
		c0,26.387,21.1,48.303,47.036,48.854c0.347,0.007,0.695,0.011,1.042,0.011l0,0h318.552c26.51,0,48.077-21.567,48.077-48.077
		v-42.521C502.658,413.814,499.699,406.678,494.328,401.307z M87.951,101.426H26.888V48.077c0-8.152,3.176-15.824,8.929-21.589
		c5.953-5.94,13.859-9.131,22.271-8.935c0.062,0.001,0.124,0.001,0.186,0.001c16.364,0,29.676,13.312,29.676,29.676V101.426z
		 M105.496,463.136V47.231c0-11.238-3.952-21.568-10.532-29.685h1.759h280.103c16.364,0,29.676,13.312,29.676,29.676v345.756H155.68
		l0.004,0.007c-7.523-0.001-14.752,2.975-20.099,8.322c-5.371,5.371-8.329,12.508-8.329,20.095v31.086
		c0,4.845,3.928,8.773,8.773,8.773h30.533v2.661c0,8.152-3.176,15.824-8.929,21.589c-5.953,5.941-13.847,9.125-22.271,8.935
		C118.893,494.098,105.496,480.051,105.496,463.136z M166.56,443.715H144.8v-22.313c0-2.901,1.133-5.632,3.19-7.688
		c2.259-2.259,5.267-3.384,8.464-3.165c5.667,0.387,10.106,5.379,10.106,11.367V443.715z M485.112,463.923
		c0,16.835-13.697,30.531-30.534,30.531H173.176c7.077-8.59,10.928-19.268,10.928-30.531v-42.007c0-4.032-0.827-7.885-2.31-11.393
		h292.437c2.901,0,5.631,1.132,7.688,3.19c2.058,2.057,3.191,4.789,3.191,7.69v42.521H485.112z"/>
</g>
<g>
</g>
<g>
</g>
<g>
</g>
<g>
</g>
<g>
</g>
<g>
</g>
<g>
</g>
<g>
</g>
<g>
</g>
<g>
</g>
<g>
</g>
<g>
</g>
<g>
</g>
<g>
</g>
<g>
</g>
</svg>
