<svg xmlns="http://www.w3.org/2000/svg" viewBox="0 0 64 64"><g id="_02-Judge" data-name="02-Judge"><path d="M27,38V18a2,2,0,0,0-2-2H3a2,2,0,0,0-2,2V38a2,2,0,0,0,2,2h7l4,4V40H25A2,2,0,0,0,27,38Z" style="fill:#f2f6fc"/><path d="M3,38V18a2,2,0,0,1,2-2H3a2,2,0,0,0-2,2V38a2,2,0,0,0,2,2H5A2,2,0,0,1,3,38Z" style="fill:#cdd2e1"/><polygon points="12 40 10 40 14 44 14 42 12 40" style="fill:#cdd2e1"/><path d="M31,26V6a2,2,0,0,1,2-2H61a2,2,0,0,1,2,2V26a2,2,0,0,1-2,2H58l-4,4V28H33A2,2,0,0,1,31,26Z" style="fill:#f2f6fc"/><polygon points="56 28 54 28 54 32 56 30 56 28" style="fill:#cdd2e1"/><path d="M33,26V6a2,2,0,0,1,2-2H33a2,2,0,0,0-2,2V26a2,2,0,0,0,2,2h2A2,2,0,0,1,33,26Z" style="fill:#cdd2e1"/><polygon points="19 26 13 32 9 28 11 26 13 28 17 24 19 26" style="fill:#f2f6fc"/><path d="M19,26l-2-2-4,4-2-2L9,28l4,4Zm-5-6a8,8,0,1,1-8,8A8,8,0,0,1,14,20Z" style="fill:#00c8ff"/><path d="M14,22a7.993,7.993,0,0,1,7.931,7A8,8,0,1,0,6.069,29,7.993,7.993,0,0,1,14,22Z" style="fill:#008cbe"/><polygon points="13 34 19 28 18 27 13 32 10 29 9 30 13 34" style="fill:#008cbe"/><polygon points="52 13.5 49.5 16 52 18.5 49.5 21 47 18.5 44.5 21 42 18.5 44.5 16 42 13.5 44.5 11 47 13.5 49.5 11 52 13.5" style="fill:#f2f6fc"/><path d="M47,7a9,9,0,1,1-9,9A9,9,0,0,1,47,7Zm2.5,9L52,13.5,49.5,11,47,13.5,44.5,11,42,13.5,44.5,16,42,18.5,44.5,21,47,18.5,49.5,21,52,18.5Z" style="fill:#e4003a"/><path d="M47,9a9,9,0,0,1,8.941,8,9,9,0,1,0-17.882,0A9,9,0,0,1,47,9Z" style="fill:#a30000"/><rect x="42.543" y="14.689" width="1.414" height="2.121" transform="translate(1.531 35.195) rotate(-45)" style="fill:#a30000"/><rect x="49.689" y="15.043" width="2.121" height="1.414" transform="translate(3.727 40.499) rotate(-45)" style="fill:#a30000"/><polygon points="44.5 23 47 20.5 49.5 23 52 20.5 51 19.5 49.5 21 47 18.5 44.5 21 43 19.5 42 20.5 44.5 23" style="fill:#a30000"/><polygon points="45 56 45 60 1 60 1 56 3 56 43 56 45 56" style="fill:#7d3c37"/><path d="M43,54v2H3V54a2.006,2.006,0,0,1,2-2H41A2.006,2.006,0,0,1,43,54Z" style="fill:#b24535"/><path d="M27.46,31.39l10.2,10.2a6.75,6.75,0,0,1-3.11,1.03L26.43,34.5A6.75,6.75,0,0,1,27.46,31.39Z" style="fill:#b24535"/><path d="M37.49,23.43l8.13,8.13a6.954,6.954,0,0,1-1.03,3.11L34.38,24.46A6.989,6.989,0,0,1,37.49,23.43Z" style="fill:#b24535"/><path d="M46.4,40.63,43.63,43.4l-3.51-3.51c.46-.39.94-.83,1.44-1.33s.94-.98,1.33-1.44Z" style="fill:#7d3c37"/><polygon points="46.4 40.63 48.47 42.71 45.71 45.47 43.63 43.4 46.4 40.63" style="fill:#b24535"/><rect x="56.606" y="54.581" width="5.869" height="3.917" transform="translate(-22.541 58.661) rotate(-45)" style="fill:#b24535"/><rect x="49.691" y="41.804" width="5.869" height="15.641" transform="translate(-19.677 51.746) rotate(-45)" style="fill:#7d3c37"/><path d="M48.47,28.87a1.954,1.954,0,0,1,.58,1.39,1.915,1.915,0,0,1-.58,1.38,1.956,1.956,0,0,1-2.76,0l-.09-.08-8.13-8.13-.08-.09a1.915,1.915,0,0,1-.58-1.38,1.96,1.96,0,0,1,3.34-1.39Z" style="fill:#7d3c37"/><path d="M34.64,42.71a1.955,1.955,0,1,1-2.77,2.76l-8.3-8.3a1.955,1.955,0,1,1,2.77-2.76l.09.09,8.12,8.12Z" style="fill:#7d3c37"/><path d="M34.38,24.46,44.59,34.67a16.439,16.439,0,0,1-1.7,2.45c-.39.46-.83.94-1.33,1.44s-.98.94-1.44,1.33a16.439,16.439,0,0,1-2.45,1.7h-.01l-10.2-10.2v-.01a19.991,19.991,0,0,1,6.92-6.92Z" style="fill:#e66441"/><path d="M34.572,43.616h-.056a1,1,0,0,1-.675-.293l-8.116-8.115a1,1,0,0,1-.292-.675c-.011-.337.019-3.418,4.35-7.749s7.412-4.36,7.749-4.35a1,1,0,0,1,.675.292l8.115,8.116a1,1,0,0,1,.293.675c.01.337-.019,3.417-4.351,7.748C38.115,43.414,35.113,43.616,34.572,43.616Zm-7.1-9.488,7.445,7.445c.811-.146,3.009-.8,5.93-3.723s3.573-5.107,3.722-5.931l-7.445-7.445c-.811.147-3.008.8-5.93,3.723S27.624,33.3,27.475,34.128Z"/><path d="M47.091,33.213A2.936,2.936,0,0,1,45,32.347l-8.3-8.3a2.956,2.956,0,0,1,0-4.181,3.028,3.028,0,0,1,4.181,0l8.3,8.3a2.956,2.956,0,0,1-2.09,5.046ZM38.791,21a.957.957,0,0,0-.677,1.633l8.3,8.3a.979.979,0,0,0,1.352,0,.957.957,0,0,0,0-1.352l-8.3-8.3A.953.953,0,0,0,38.791,21Z"/><path d="M33.257,47.046a2.943,2.943,0,0,1-2.09-.865l-8.3-8.3a2.956,2.956,0,0,1,0-4.181,3.028,3.028,0,0,1,4.181,0l8.3,8.3a2.955,2.955,0,0,1-2.09,5.046Zm-8.3-12.212a.957.957,0,0,0-.677,1.633l8.3,8.3a.956.956,0,0,0,1.632-.676.946.946,0,0,0-.28-.676l-8.3-8.3A.953.953,0,0,0,24.957,34.834Z"/><rect x="38.482" y="21.74" width="2" height="15.651" transform="translate(-9.342 36.578) rotate(-45)"/><rect x="31.565" y="28.657" width="2" height="15.651" transform="translate(-16.259 33.712) rotate(-45)"/><path d="M43.632,44.4a1,1,0,0,1-.707-.293l-4.15-4.15,1.414-1.414,3.443,3.443,1.353-1.353-3.443-3.443,1.414-1.414,4.15,4.15a1,1,0,0,1,0,1.414l-2.767,2.767A1,1,0,0,1,43.632,44.4Z"/><path d="M45.708,46.474A1,1,0,0,1,45,46.181l-2.075-2.075,1.414-1.414,1.369,1.368,1.352-1.352-1.368-1.369,1.414-1.414L49.181,42a1,1,0,0,1,0,1.415l-2.766,2.766A1,1,0,0,1,45.708,46.474Z"/><path d="M58.85,61a1,1,0,0,1-.707-.293L44.309,46.873a1,1,0,0,1,0-1.414l4.15-4.15a1,1,0,0,1,1.414,0L63.707,55.143a1,1,0,0,1,0,1.414l-4.15,4.15A1,1,0,0,1,58.85,61ZM46.43,46.166l12.42,12.42,2.736-2.736L49.166,43.43Z"/><rect x="55.223" y="54.158" width="5.87" height="2" transform="translate(-21.969 57.28) rotate(-45)"/><path d="M43,57H3a1,1,0,0,1-1-1V54a3,3,0,0,1,3-3H41a3,3,0,0,1,3,3v2A1,1,0,0,1,43,57ZM4,55H42V54a1,1,0,0,0-1-1H5a1,1,0,0,0-1,1Z"/><path d="M14,45a1,1,0,0,1-.707-.293L9.586,41H3a3,3,0,0,1-3-3V18a3,3,0,0,1,3-3H25a3,3,0,0,1,3,3V28H26V18a1,1,0,0,0-1-1H3a1,1,0,0,0-1,1V38a1,1,0,0,0,1,1h7a1,1,0,0,1,.707.293L13,41.586V40a1,1,0,0,1,1-1h9v2H15v3a1,1,0,0,1-1,1Z"/><path d="M54,33a1,1,0,0,1-1-1V29H51V27h3a1,1,0,0,1,1,1v1.586l2.293-2.293A1,1,0,0,1,58,27h3a1,1,0,0,0,1-1V6a1,1,0,0,0-1-1H33a1,1,0,0,0-1,1V24H30V6a3,3,0,0,1,3-3H61a3,3,0,0,1,3,3V26a3,3,0,0,1-3,3H58.414l-3.707,3.707A1,1,0,0,1,54,33Z"/><path d="M14,37a9,9,0,1,1,9-9A9.011,9.011,0,0,1,14,37Zm0-16a7,7,0,1,0,7,7A7.008,7.008,0,0,0,14,21Z"/><path d="M13,33a1,1,0,0,1-.707-.293l-4-4a1,1,0,0,1,0-1.414l2-2a1,1,0,0,1,1.414,0L13,26.586l3.293-3.293a1,1,0,0,1,1.414,0l2,2a1,1,0,0,1,0,1.414l-6,6A1,1,0,0,1,13,33Zm-2.586-5L13,30.586,17.586,26,17,25.414l-3.293,3.293a1,1,0,0,1-1.414,0L11,27.414Z"/><path d="M49.5,22a1,1,0,0,1-.707-.293L47,19.914l-1.793,1.793a1,1,0,0,1-1.414,0l-2.5-2.5a1,1,0,0,1,0-1.414L43.086,16l-1.793-1.793a1,1,0,0,1,0-1.414l2.5-2.5a1,1,0,0,1,1.414,0L47,12.086l1.793-1.793a1,1,0,0,1,1.414,0l2.5,2.5a1,1,0,0,1,0,1.414L50.914,16l1.793,1.793a1,1,0,0,1,0,1.414l-2.5,2.5A1,1,0,0,1,49.5,22ZM47,17.5a1,1,0,0,1,.707.293L49.5,19.586,50.586,18.5l-1.793-1.793a1,1,0,0,1,0-1.414L50.586,13.5,49.5,12.414l-1.793,1.793a1,1,0,0,1-1.414,0L44.5,12.414,43.414,13.5l1.793,1.793a1,1,0,0,1,0,1.414L43.414,18.5,44.5,19.586l1.793-1.793A1,1,0,0,1,47,17.5Z"/><path d="M47,26V24a8,8,0,1,0-8-8H37A10,10,0,1,1,47,26Z"/><rect x="21" y="44" width="2" height="5"/><rect x="16.5" y="45.379" width="2" height="4.243" transform="translate(-28.462 26.287) rotate(-45)"/><rect x="24.379" y="46.5" width="4.243" height="2" transform="translate(-25.826 32.651) rotate(-45)"/><rect x="34" y="59" width="21" height="2"/><rect x="30" y="59" width="2" height="2"/><path d="M28,61H1a1,1,0,0,1-1-1V56a1,1,0,0,1,1-1H45a1,1,0,0,1,1,1v4H44V57H2v2H28Z"/></g></svg>