<?xml version="1.0" encoding="iso-8859-1"?>
<!-- Generator: Adobe Illustrator 19.0.0, SVG Export Plug-In . SVG Version: 6.00 Build 0)  -->
<svg version="1.1" id="Layer_1" xmlns="http://www.w3.org/2000/svg" xmlns:xlink="http://www.w3.org/1999/xlink" x="0px" y="0px"
	 viewBox="0 0 512 512" style="enable-background:new 0 0 512 512;" xml:space="preserve">
<path style="opacity:0.5;fill:#DBEBE1;enable-background:new    ;" d="M12.729,243.271c0-64.98,25.305-126.071,71.252-172.018
	S191.02,0,256,0s126.071,25.305,172.018,71.252c45.948,45.948,71.252,107.038,71.252,172.018s-25.305,126.071-71.252,172.018
	C382.071,461.237,320.98,486.541,256,486.541s-126.071-25.305-172.018-71.252S12.729,308.251,12.729,243.271"/>
<path style="fill:#BED8D9;" d="M26.873,243.271C26.873,116.727,129.456,14.144,256,14.144s229.127,102.583,229.127,229.127
	S382.544,472.398,256,472.398S26.873,369.814,26.873,243.271"/>
<circle style="fill:#DBEBE1;" cx="256" cy="243.271" r="169.724"/>
<circle style="opacity:0.5;fill:#FEFBE1;enable-background:new    ;" cx="256" cy="243.271" r="84.862"/>
<g>
	<path style="fill:#E1B872;" d="M248.351,326.571c-0.588-11.292-2.602-23.173-6.766-35.133c-1.742-4.99-3.858-9.98-6.393-14.958
		h-0.011c-2.331-4.571-5.024-9.131-8.124-13.634c-1.12-1.618-2.286-3.236-3.508-4.843c-10.67-14.042-18.681-33.866-23.874-51.868
		c-3.79-13.137-18.771-19.292-30.686-12.582c-0.045,0.034-0.181,0.102-0.215,0.124c-1.539-8.995-2.727-18.828-3.293-29.328
		c-0.509-9.357-9.957-17.73-19.337-17.233c-4.334,0.238-8.203,2.082-11.066,4.922c-1.89-9.527-10.466-16.576-20.48-16.248
		c-7.004,0.215-13.069,3.972-16.542,9.493c-2.059,3.293-3.213,7.208-3.078,11.383v3.078v0.011c-2.625-0.996-5.499-1.471-8.486-1.313
		c-6.393,0.339-11.96,3.519-15.547,8.249c-2.874,3.79-4.469,8.588-4.198,13.714c1.505,28.287,6.291,51.709,11.756,70.028
		c-3.032,1.324-5.601,3.361-7.547,5.85h-0.011c-3.508,4.469-5.046,10.398-3.723,16.35l13.295,59.879
		c3.361,15.105,11.779,28.615,23.863,38.278l20.661,16.554c3.858,3.094,7.926,5.878,12.176,8.336
		c3.49,2.017,5.634,5.745,5.634,9.775v42.722c0,6.546,3.749,12.539,9.672,15.328c19.121,9.002,39.607,15.584,61.06,19.353
		c10.34,1.816,19.788-6.241,19.788-16.739v-61.89c0-1.611,0.338-3.202,1.008-4.667C238.022,391.581,250.202,361.985,248.351,326.571
		z"/>
	<path style="fill:#E1B872;" d="M263.649,326.571c0.588-11.292,2.602-23.173,6.766-35.133c1.742-4.99,3.858-9.98,6.393-14.958h0.011
		c2.331-4.571,5.024-9.131,8.124-13.634c1.12-1.618,2.286-3.236,3.508-4.843c10.67-14.042,18.681-33.866,23.874-51.868
		c3.791-13.137,18.771-19.292,30.686-12.582c0.045,0.034,0.181,0.102,0.215,0.124c1.539-8.995,2.727-18.828,3.293-29.328
		c0.509-9.357,9.957-17.73,19.337-17.233c4.334,0.238,8.203,2.082,11.066,4.922c1.89-9.527,10.466-16.576,20.48-16.248
		c7.004,0.215,13.069,3.972,16.542,9.493c2.059,3.293,3.213,7.208,3.078,11.383v3.078v0.011c2.625-0.996,5.499-1.471,8.486-1.313
		c6.393,0.339,11.96,3.519,15.547,8.249c2.874,3.79,4.469,8.588,4.198,13.714c-1.505,28.287-6.291,51.709-11.756,70.028
		c3.032,1.324,5.601,3.361,7.547,5.85h0.011c3.508,4.469,5.046,10.398,3.723,16.35l-13.295,59.879
		c-3.361,15.105-11.779,28.615-23.863,38.278l-20.661,16.554c-3.858,3.094-7.926,5.878-12.176,8.336
		c-3.49,2.017-5.634,5.745-5.634,9.775v42.722c0,6.546-3.749,12.539-9.672,15.328c-19.121,9.002-39.607,15.584-61.06,19.353
		c-10.34,1.816-19.788-6.241-19.788-16.739v-61.89c0-1.611-0.338-3.202-1.008-4.667
		C273.978,391.581,261.798,361.985,263.649,326.571z"/>
</g>
<g style="opacity:0.8;">
	<path style="opacity:0.6;fill:#F8E5B5;enable-background:new    ;" d="M199.674,206.135c5.194,18.002,13.205,37.826,23.874,51.868
		c1.222,1.607,2.387,3.225,3.508,4.843c-10.851-6.087-22.268-8.656-22.268-8.656s0,0-0.011-0.011
		c-7.366-12.729-12.673-26.635-16.35-38.301c-0.238-0.758-1.018-3.779-1.924-7.309c-2.105-8.26-9.244-14.245-17.73-14.89
		c0.034-0.023,0.17-0.091,0.215-0.124C180.903,186.843,195.884,192.999,199.674,206.135z"/>
	<path style="opacity:0.6;fill:#F8E5B5;enable-background:new    ;" d="M168.773,193.677c5.906,34.658,16.916,56.835,17.052,57.05
		c-5.805-0.498-11.258-0.656-16.35-0.554c-5.669-13.657-15.185-41.843-18.149-77.247c-0.023-0.238-0.034-0.577-0.057-1.007
		c-0.487-9.448-7.038-17.493-16.192-19.88c2.863-2.84,6.732-4.684,11.066-4.922c9.38-0.498,18.828,7.875,19.337,17.233
		C166.046,174.849,167.234,184.682,168.773,193.677z"/>
	<path style="opacity:0.6;fill:#F8E5B5;enable-background:new    ;" d="M135.473,155.41c1.335,42.974,11.258,76.432,18.76,95.917
		c-5.341,0.724-10.161,1.72-14.449,2.863c0,0-0.283-0.702-0.373-0.939c-6.246-15.105-14.381-40.428-16.271-75.844
		c-0.803-15.286-11.224-27.835-25.085-32.123c3.474-5.522,9.538-9.278,16.542-9.493c10.014-0.328,18.59,6.721,20.48,16.248
		C135.304,153.136,135.44,154.256,135.473,155.41z"/>
	<path style="opacity:0.6;fill:#F8E5B5;enable-background:new    ;" d="M108.453,178.187c2.014,37.837,10.738,65.049,17.414,80.8
		c-8.271,3.598-12.401,6.913-12.401,6.913c-2.851-7.377-8.712-12.944-15.784-15.592c-7.049-16.09-12.265-46.097-13.94-65.785
		c-0.079-0.86-0.181-2.127-0.294-3.564c-0.543-7.004-5.635-12.808-12.503-14.268c3.587-4.73,9.154-7.909,15.547-8.249
		c2.987-0.158,5.861,0.317,8.486,1.313C102.502,162.595,108.001,169.645,108.453,178.187z"/>
	<path style="opacity:0.9;fill:#F8E5B5;enable-background:new    ;" d="M78.503,250.433c0.973-0.419,2.003-0.769,3.078-1.041
		c2.206-0.554,4.424-0.815,6.608-0.815c3.293,0,6.495,0.6,9.493,1.731c7.072,2.648,12.933,8.215,15.784,15.592
		c0.464,1.177,0.849,2.399,1.143,3.666l3.304,14.166l3.03,12.984c2.007,8.602-7.657,15.439-14.895,10.378
		c-4.411-3.083-7.744-7.742-9.068-13.393l-4.062-17.38c-2.614-10.5-11.27-18.398-21.962-20.039
		C72.902,253.794,75.47,251.757,78.503,250.433z"/>
	<path style="opacity:0.6;fill:#F8E5B5;enable-background:new    ;" d="M125.867,258.987c3.768-1.641,8.407-3.338,13.917-4.798
		c4.288-1.143,9.109-2.139,14.449-2.863c4.673-0.634,9.753-1.052,15.241-1.154c5.092-0.102,10.546,0.057,16.35,0.554
		c0.091,0.011,0.17,0.011,0.26,0.023c1.81,0.158,3.666,0.317,5.544,0.577c8.656,1.211,12.888,2.761,13.148,2.851
		c0.011,0.011,0.011,0.011,0.011,0.011s11.417,2.568,22.268,8.656c3.1,4.503,5.793,9.063,8.124,13.634
		c-45.701,31.331-117.268,7.253-117.268,7.253l-3.304-14.166c-0.294-1.267-0.679-2.489-1.143-3.666
		C113.466,265.901,117.596,262.585,125.867,258.987z"/>
	<path style="opacity:0.6;fill:#F8E5B5;enable-background:new    ;" d="M245.738,306.384c-1.69-8.014-11.169-11.567-17.76-6.704
		c-4.691,3.461-9.66,7.851-14.29,13.335c-8.683,10.282-23.318,12.769-35.055,6.186c-0.43-0.241-0.854-0.47-1.273-0.686
		c-13.191-6.796-27.784-8.539-38.341-8.717c-8.019-0.136-13.668,7.839-10.799,15.328c6.96,18.162,25.049,46.361,69.687,41.852
		c33.096-3.338,45.95-22.075,50.442-40.406C248.009,320.007,247.186,313.246,245.738,306.384z"/>
	<path style="opacity:0.6;fill:#F8E5B5;enable-background:new    ;" d="M312.326,206.135c-5.194,18.002-13.205,37.826-23.874,51.868
		c-1.222,1.607-2.387,3.225-3.508,4.843c10.851-6.087,22.268-8.656,22.268-8.656s0,0,0.011-0.011
		c7.366-12.729,12.673-26.635,16.35-38.301c0.238-0.758,1.018-3.779,1.924-7.309c2.105-8.26,9.244-14.245,17.73-14.89
		c-0.034-0.023-0.17-0.091-0.215-0.124C331.097,186.843,316.116,192.999,312.326,206.135z"/>
	<path style="opacity:0.6;fill:#F8E5B5;enable-background:new    ;" d="M343.227,193.677c-5.906,34.658-16.916,56.835-17.052,57.05
		c5.805-0.498,11.258-0.656,16.35-0.554c5.669-13.657,15.185-41.843,18.149-77.247c0.023-0.238,0.034-0.577,0.057-1.007
		c0.487-9.448,7.038-17.493,16.192-19.88c-2.863-2.84-6.732-4.684-11.066-4.922c-9.38-0.498-18.828,7.875-19.337,17.233
		C345.954,174.849,344.766,184.682,343.227,193.677z"/>
	<path style="opacity:0.6;fill:#F8E5B5;enable-background:new    ;" d="M376.526,155.41c-1.335,42.974-11.258,76.432-18.76,95.917
		c5.341,0.724,10.161,1.72,14.449,2.863c0,0,0.283-0.702,0.373-0.939c6.246-15.105,14.381-40.428,16.271-75.844
		c0.803-15.286,11.224-27.835,25.085-32.123c-3.474-5.522-9.538-9.278-16.542-9.493c-10.014-0.328-18.59,6.721-20.48,16.248
		C376.696,153.136,376.56,154.256,376.526,155.41z"/>
	<path style="opacity:0.6;fill:#F8E5B5;enable-background:new    ;" d="M403.547,178.187c-2.014,37.837-10.738,65.049-17.414,80.8
		c8.271,3.598,12.401,6.913,12.401,6.913c2.851-7.377,8.712-12.944,15.784-15.592c7.049-16.09,12.265-46.097,13.94-65.785
		c0.079-0.86,0.181-2.127,0.294-3.564c0.543-7.004,5.635-12.808,12.503-14.268c-3.587-4.73-9.154-7.909-15.547-8.249
		c-2.987-0.158-5.861,0.317-8.486,1.313C409.498,162.595,403.999,169.645,403.547,178.187z"/>
	<path style="opacity:0.9;fill:#F8E5B5;enable-background:new    ;" d="M433.497,250.433c-0.973-0.419-2.003-0.769-3.078-1.041
		c-2.206-0.554-4.424-0.815-6.608-0.815c-3.293,0-6.495,0.6-9.493,1.731c-7.072,2.648-12.933,8.215-15.784,15.592
		c-0.464,1.177-0.849,2.399-1.143,3.666l-3.304,14.166l-3.03,12.984c-2.007,8.602,7.657,15.439,14.895,10.378
		c4.411-3.083,7.744-7.742,9.068-13.393l4.062-17.38c2.614-10.5,11.27-18.398,21.962-20.039
		C439.098,253.794,436.529,251.757,433.497,250.433z"/>
	<path style="opacity:0.6;fill:#F8E5B5;enable-background:new    ;" d="M386.133,258.987c-3.768-1.641-8.407-3.338-13.917-4.798
		c-4.288-1.143-9.108-2.139-14.449-2.863c-4.673-0.634-9.753-1.052-15.241-1.154c-5.092-0.102-10.546,0.057-16.35,0.554
		c-0.09,0.011-0.17,0.011-0.26,0.023c-1.81,0.158-3.666,0.317-5.544,0.577c-8.656,1.211-12.888,2.761-13.148,2.851
		c-0.011,0.011-0.011,0.011-0.011,0.011s-11.417,2.568-22.268,8.656c-3.1,4.503-5.793,9.063-8.124,13.634
		c45.701,31.331,117.268,7.253,117.268,7.253l3.304-14.166c0.294-1.267,0.679-2.489,1.143-3.666
		C398.534,265.901,394.404,262.585,386.133,258.987z"/>
	<path style="opacity:0.6;fill:#F8E5B5;enable-background:new    ;" d="M266.261,306.384c1.69-8.014,11.169-11.567,17.76-6.704
		c4.691,3.461,9.66,7.851,14.29,13.335c8.683,10.282,23.318,12.769,35.055,6.186c0.43-0.241,0.854-0.47,1.273-0.686
		c13.191-6.796,27.784-8.539,38.341-8.717c8.019-0.136,13.668,7.839,10.799,15.328c-6.96,18.162-25.049,46.361-69.687,41.852
		c-33.096-3.338-45.95-22.075-50.442-40.406C263.991,320.007,264.814,313.246,266.261,306.384z"/>
</g>
<path d="M443.395,246.574c5.622-20.62,9.111-42.683,10.336-65.718c0.861-16.172-11.597-30.031-27.785-30.893
	c-0.359-0.018-0.715-0.021-1.073-0.027c-1.087-5.049-3.525-9.724-7.153-13.584c-5.259-5.595-12.382-8.806-20.042-9.044
	c-7.661-0.257-14.966,2.506-20.567,7.761c-1.574,1.477-2.951,3.104-4.136,4.845c-2.14-0.711-4.379-1.146-6.671-1.27
	c-14.077-0.758-27.509,11.29-28.26,25.248c-0.351,6.506-0.955,12.735-1.731,18.664c-4.984-0.63-10.1,0.018-14.901,1.986
	c-8.43,3.452-14.716,10.467-17.246,19.246c-5.841,20.265-13.825,37.695-22.478,49.078c-14.2,18.68-22.845,40.303-25.677,63.797
	c-1.158-9.689-3.303-19.079-6.416-28.023c-1.896-5.431-4.198-10.818-6.842-16.011c-0.012-0.025-0.028-0.048-0.041-0.071
	c-0.054-0.103-0.111-0.204-0.169-0.303c-2.516-4.894-5.37-9.679-8.51-14.24c-1.268-1.832-2.487-3.513-3.725-5.142
	c-0.001-0.001-0.002-0.003-0.003-0.006c-8.646-11.378-16.628-28.81-22.477-49.085c-2.532-8.778-8.821-15.791-17.253-19.242
	c-4.793-1.962-9.898-2.611-14.873-1.986c-0.811-6.214-1.412-12.458-1.747-18.663v-0.005c-0.759-13.957-14.235-25.995-28.275-25.245
	c-2.283,0.126-4.516,0.561-6.651,1.272c-5.371-7.974-14.544-12.945-24.691-12.607c-9.577,0.295-18.348,5.326-23.476,13.476
	c-1.779,2.842-3.018,5.937-3.716,9.155c-0.367,0.006-0.733,0.01-1.102,0.029h-0.002c-8.651,0.459-16.618,4.686-21.858,11.596
	c-4.179,5.512-6.278,12.362-5.91,19.292c1.227,23.067,4.721,45.15,10.349,65.778c-1.489,1.215-2.854,2.58-4.064,4.077
	c-0.068,0.078-0.138,0.154-0.204,0.234c-0.027,0.034-0.059,0.063-0.086,0.098c-5.221,6.652-7.163,15.193-5.332,23.429l13.295,59.882
	c3.769,16.94,13.303,32.234,26.841,43.059l20.659,16.553c4.605,3.691,9.511,6.989,14.631,9.847v73.677
	c0,4.687,3.8,8.486,8.486,8.486c4.687,0,8.486-3.8,8.486-8.486v-66.08c3.689,1.279,7.446,2.363,11.254,3.229
	c0.634,0.144,1.266,0.213,1.89,0.213c3.873,0,7.372-2.669,8.267-6.606c1.04-4.57-1.822-9.118-6.392-10.157
	c-6.831-1.555-13.476-3.912-19.754-7.01c-5.74-2.829-11.209-6.314-16.255-10.359l-20.667-16.558
	c-10.533-8.423-17.948-20.317-20.878-33.49L75.506,270.79c-0.718-3.23,0.038-6.58,2.071-9.206c0.02-0.026,0.044-0.049,0.064-0.075
	c1.119-1.431,2.591-2.572,4.215-3.281c0.574-0.247,1.179-0.451,1.793-0.606c3.611-0.909,7.5-0.707,11.056,0.635
	c4.895,1.833,8.784,5.636,10.749,10.5c0.068,0.191,0.143,0.38,0.225,0.567c0.265,0.709,0.493,1.436,0.664,2.171l9.572,41.029
	c1.01,4.33,5.19,7.144,9.584,6.454c0.264-0.041,26.462-4,47.974,7.082c1.243,0.64,2.571,0.944,3.879,0.944
	c3.077,0,6.046-1.678,7.552-4.602c2.146-4.166,0.509-9.284-3.658-11.43c-18.635-9.6-39.421-10.108-50.484-9.511l-7.418-31.796
	c1.575-0.87,3.54-1.866,5.911-2.897c3.929-1.711,8.202-3.183,12.713-4.378c4.242-1.13,8.751-2.023,13.405-2.653
	c4.616-0.626,9.413-0.989,14.27-1.079c4.992-0.098,10.161,0.074,15.368,0.517c0.097,0.01,0.195,0.018,0.292,0.025
	c0.014,0.001,0.027,0.002,0.041,0.003l0.208,0.018c1.706,0.149,3.318,0.291,4.912,0.511c4.644,0.647,8.927-2.599,9.57-7.242
	s-2.599-8.927-7.242-9.57c-0.431-0.06-0.838-0.098-1.26-0.148c-2.944-6.906-8.852-22.324-13.077-43.427
	c1.914-0.14,3.855,0.152,5.689,0.903c3.602,1.473,6.289,4.477,7.375,8.24c4.538,15.731,12.607,37.982,25.271,54.649
	c0.001,0.001,0.001,0.002,0.002,0.002l0,0c1.085,1.427,2.16,2.91,3.272,4.517c2.787,4.048,5.328,8.314,7.554,12.677
	c0.017,0.034,0.041,0.062,0.058,0.096c2.278,4.484,4.261,9.127,5.892,13.797c3.588,10.306,5.71,21.337,6.307,32.786
	c2.02,38.628-13.907,70.495-14.062,70.802c-0.612,1.196-0.93,2.521-0.93,3.864v101.834c0,4.687,3.8,8.486,8.486,8.486
	c4.687,0,8.486-3.8,8.486-8.486v-99.896c2.841-6.1,11.218-25.826,14.144-51.766c0.139,1.227,0.292,2.456,0.459,3.69
	c3.278,24.121,10.995,42.282,13.684,48.071v99.902c0,4.687,3.798,8.486,8.486,8.486s8.486-3.8,8.486-8.486V401.68
	c0-1.343-0.318-2.667-0.93-3.863c-0.375-0.734-37.008-74.14,9.016-134.679c12.677-16.676,20.743-38.922,25.276-54.649
	c1.084-3.762,3.77-6.766,7.369-8.241c1.835-0.751,3.779-1.047,5.691-0.909c-4.24,21.145-10.151,36.571-13.083,43.447
	c-0.37,0.042-0.739,0.071-1.108,0.115c-4.653,0.563-7.968,4.792-7.404,9.446c0.563,4.654,4.8,7.958,9.445,7.404
	c1.756-0.213,3.528-0.398,5.27-0.551c32.645-2.865,53.369,5.763,61.992,10.484l-7.35,31.503
	c-12.243-1.016-35.51-0.545-52.299,14.378c-3.503,3.114-3.819,8.477-0.705,11.98c3.112,3.501,8.475,3.819,11.98,0.705
	c16.858-14.987,45.555-9.403,45.823-9.347c4.504,0.931,8.938-1.898,9.983-6.382l9.572-41.023c1.146-4.911,4.147-9.063,8.451-11.692
	c4.305-2.63,9.37-3.401,14.259-2.179c5.875,1.469,9.449,7.251,8.134,13.163l-13.306,59.877
	c-2.927,13.173-10.343,25.069-20.886,33.505l-20.654,16.554c-10.469,8.39-22.918,14.391-36.002,17.356
	c-4.57,1.035-7.436,5.581-6.401,10.151c0.892,3.94,4.392,6.614,8.269,6.614c0.621,0,1.251-0.069,1.883-0.212
	c3.807-0.862,7.569-1.944,11.263-3.228v66.083c0,4.687,3.798,8.486,8.486,8.486s8.486-3.8,8.486-8.486v-73.693
	c5.142-2.866,10.047-6.152,14.631-9.826l20.65-16.55c13.548-10.839,23.082-26.135,26.846-43.071l13.306-59.876
	C455.467,263.674,451.422,253.049,443.395,246.574z M100.678,242.369c-5.166-1.95-10.746-2.637-16.207-2.069
	c-5.014-18.928-8.124-39.185-9.249-60.344c-0.155-2.928,0.728-5.819,2.485-8.137c2.215-2.922,5.581-4.708,9.233-4.903l0,0
	c1.745-0.093,3.434,0.167,5.041,0.777c4.6,1.737,7.739,6.031,8,10.944c1.649,30.979,7.665,55.152,13.641,72.172
	C110.012,247.125,105.61,244.216,100.678,242.369z M137.612,245.986c-2.365,0.626-4.673,1.332-6.932,2.089
	c-5.876-15.884-12.106-39.394-13.752-70.337c-0.505-9.527-5.591-18.071-13.392-23.111c0.204-1.706,0.781-3.351,1.702-4.826
	c2.102-3.342,5.699-5.41,9.637-5.531c5.671-0.181,10.777,3.863,11.892,9.483c0.132,0.64,0.206,1.264,0.225,1.919
	c1.164,37.475,8.637,67.938,15.834,89.066C141.06,245.125,139.313,245.533,137.612,245.986z M169.318,241.689
	c-3.164,0.059-6.308,0.232-9.415,0.496c-7.013-19.783-14.646-49.269-15.909-86.022c0.828-0.322,1.703-0.523,2.6-0.571
	c4.702-0.246,10.157,4.572,10.413,9.216c0.534,9.903,1.653,19.902,3.312,29.728c0.033,0.333,0.091,0.657,0.161,0.976
	c3.364,19.554,8.391,35.604,12.329,46.156C171.639,241.664,170.472,241.665,169.318,241.689z M352.103,242.183
	c-4.075-0.346-8.382-0.539-12.936-0.527c5.783-15.262,13.967-42.332,15.826-76.851c0.25-4.641,5.708-9.467,10.405-9.214
	c0.903,0.049,1.78,0.248,2.607,0.568C366.745,192.915,359.115,222.399,352.103,242.183z M395.069,177.735
	c-1.647,30.952-7.874,54.463-13.749,70.345c-3.616-1.215-7.655-2.367-12.14-3.348c7.196-21.131,14.664-51.593,15.825-89.056
	c0.098-3.148,1.419-6.07,3.719-8.229c2.29-2.149,5.259-3.278,8.414-3.174c3.143,0.097,6.06,1.413,8.216,3.704
	c1.75,1.862,2.813,4.192,3.101,6.686C400.828,159.608,395.588,167.995,395.069,177.735z M436.783,179.954
	c-1.125,21.149-4.235,41.404-9.25,60.337c-7.747-0.826-15.503,0.897-22.275,5.033c-2.533,1.547-4.828,3.373-6.858,5.43
	c5.969-17.017,11.969-41.169,13.616-72.117c0.362-6.817,6.224-12.07,13.042-11.725C431.887,167.275,437.147,173.126,436.783,179.954
	z"/>
<g>
</g>
<g>
</g>
<g>
</g>
<g>
</g>
<g>
</g>
<g>
</g>
<g>
</g>
<g>
</g>
<g>
</g>
<g>
</g>
<g>
</g>
<g>
</g>
<g>
</g>
<g>
</g>
<g>
</g>
</svg>
