<?xml version="1.0" encoding="utf-8"?>
<!-- Generator: Adobe Illustrator 24.0.0, SVG Export Plug-In . SVG Version: 6.00 Build 0)  -->
<svg version="1.1" xmlns="http://www.w3.org/2000/svg" xmlns:xlink="http://www.w3.org/1999/xlink" x="0px" y="0px"
	 viewBox="0 0 256 256" enable-background="new 0 0 256 256" xml:space="preserve">
<g id="Layer_2">
</g>
<g id="Layer_1">
	<g>
	</g>
	<g>
		<g>
			<path fill="#F0C020" d="M46.955,178.5c-3.683-1.217-7.487-2.281-9.623-11.48c-1.967,8.473-5.118,9.992-9.623,11.48
				c7.347,2.428,8.455,6.447,9.623,11.48C39.345,181.304,42.675,179.915,46.955,178.5z"/>
			<path d="M34.923,190.54c-1.067-4.599-1.771-7.637-7.989-9.691c-2.259-0.746-2.254-3.952,0-4.697
				c3.743-1.237,6.216-2.054,7.989-9.692c0.589-2.538,4.228-2.545,4.818,0c1.813,7.811,4.522,8.549,7.989,9.691
				c2.259,0.746,2.254,3.952,0,4.697c-3.609,1.192-6.218,2.054-7.989,9.691C39.149,193.09,35.515,193.091,34.923,190.54z
				 M33.509,178.557c1.78,1.222,2.996,2.618,3.872,4.094c1.061-1.875,2.29-3.166,3.659-4.128c-1.312-0.939-2.583-2.269-3.699-4.279
				C36.238,176.229,34.949,177.569,33.509,178.557z"/>
			<path fill="#F0C020" d="M134.074,49.965c-3.683-1.217-7.487-2.281-9.623-11.481c-1.967,8.473-5.118,9.992-9.623,11.481
				c7.347,2.428,8.455,6.447,9.623,11.48C126.465,52.769,129.795,51.379,134.074,49.965z"/>
			<path d="M122.042,62.005c-1.067-4.599-1.771-7.637-7.989-9.691c-2.259-0.746-2.254-3.952,0-4.697
				c3.743-1.237,6.216-2.054,7.989-9.692c0.589-2.538,4.228-2.545,4.818,0c1.813,7.811,4.522,8.549,7.989,9.691
				c2.259,0.746,2.254,3.952,0,4.697c-3.609,1.192-6.218,2.054-7.989,9.691C126.269,64.555,122.635,64.555,122.042,62.005z
				 M120.629,50.022c1.78,1.222,2.996,2.618,3.872,4.094c1.061-1.875,2.29-3.166,3.659-4.128c-1.312-0.939-2.583-2.269-3.699-4.279
				C123.358,47.693,122.069,49.034,120.629,50.022z"/>
			<path fill="#F0C020" d="M240.86,108.081c-3.683-1.217-7.487-2.281-9.623-11.48c-1.967,8.473-5.118,9.992-9.623,11.48
				c7.347,2.428,8.455,6.447,9.623,11.48C233.25,110.885,236.58,109.495,240.86,108.081z"/>
			<path d="M228.828,120.12c-1.067-4.599-1.771-7.637-7.989-9.691c-2.259-0.746-2.254-3.952,0-4.697
				c3.743-1.237,6.216-2.054,7.989-9.692c0.589-2.538,4.228-2.545,4.818,0c1.813,7.811,4.522,8.549,7.989,9.691
				c2.259,0.746,2.254,3.952,0,4.697c-3.609,1.192-6.218,2.054-7.989,9.691C233.054,122.67,229.42,122.671,228.828,120.12z
				 M227.414,108.137c1.78,1.222,2.996,2.618,3.872,4.094c1.061-1.875,2.29-3.166,3.659-4.128c-1.313-0.939-2.583-2.269-3.699-4.279
				C230.143,105.809,228.854,107.15,227.414,108.137z"/>
			<circle fill="#FFB69F" cx="66.991" cy="108.025" r="11.191"/>
			<path fill="#72C2E9" d="M77.665,161.961H61.316c-2.761,0-5-2.239-5-5v-27.07c0-5.895,4.779-10.675,10.675-10.675h0
				c5.895,0,10.675,4.779,10.675,10.675V161.961z"/>
			<circle fill="#FFB69F" cx="116.06" cy="88.722" r="11.191"/>
			<path fill="#72C2E9" d="M126.735,141.134h-16.349c-2.761,0-5-2.239-5-5v-25.546c0-5.895,4.779-10.675,10.675-10.675h0
				c5.895,0,10.675,4.779,10.675,10.675V141.134z"/>
			<path fill="#FC5D3D" d="M176.32,103.917h-16.349c-2.761,0-5-2.239-5-5V72.885c0-5.707,4.626-10.333,10.333-10.333h0.683
				c5.707,0,10.333,4.626,10.333,10.333V103.917z"/>
			<circle fill="#FFB69F" cx="161.686" cy="51.36" r="11.191"/>
			<path fill="#F0C020" d="M19.213,229.613V19.668c0-3.711-3.009-6.72-6.72-6.72h0c-3.711,0-6.72,3.009-6.72,6.72v216.665
				c0,3.711,3.009,6.72,6.72,6.72h231.014c3.711,0,6.72-3.009,6.72-6.72v0c0-3.711-3.009-6.72-6.72-6.72H19.213z"/>
		</g>
		<g>
			<circle cx="56.315" cy="146.166" r="2.5"/>
			<path d="M216.625,89.985c0.98-0.979,0.97-2.569,0-3.54c-0.95-0.939-2.59-0.939-3.54,0c-0.977,0.998-0.974,2.556,0.01,3.54
				C214.076,90.965,215.657,90.952,216.625,89.985z"/>
			<path d="M220.155,82.905c0.944,0.945,2.525,1.006,3.54-0.01l17.27-17.318v11.228c0,1.38,1.12,2.5,2.5,2.5s2.5-1.12,2.5-2.5
				c0-0.051,0-17.322,0-17.28c0-1.399-1.14-2.49-2.5-2.49h-17.27c-1.38,0-2.5,1.12-2.5,2.5c0,1.37,1.12,2.5,2.5,2.5h11.24
				l-17.29,17.33C219.154,80.378,219.185,81.936,220.155,82.905z"/>
			<path d="M226.705,243.055c0-1.38-1.12-2.5-2.5-2.5c-1.38,0-2.5,1.12-2.5,2.5c0,1.37,1.12,2.49,2.5,2.49
				C225.585,245.545,226.705,244.425,226.705,243.055z"/>
			<path d="M252.725,236.335c0-5.091-4.14-9.221-9.22-9.221h-29.61v-4.72c0-1.38-1.13-2.5-2.5-2.5c-1.38,0-2.5,1.12-2.5,2.5v4.72
				h-43.11v-4.72c0-1.38-1.12-2.5-2.5-2.5c-1.38,0-2.5,1.12-2.5,2.5v4.72h-43.11v-4.72c0-1.38-1.12-2.5-2.5-2.5s-2.5,1.12-2.5,2.5
				v4.72h-43.12v-4.72c0-1.38-1.12-2.5-2.5-2.5s-2.5,1.12-2.5,2.5v4.72H26.867c0.616-0.45,59.433-43.44,60.049-43.89h35.69
				c0.67,0,1.29-0.26,1.77-0.74l15.944-15.987c0.012-0.011,0.023-0.023,0.034-0.034l69.211-69.398c1.01-1.031,0.938-2.602,0-3.54
				c-0.95-0.939-2.59-0.939-3.54,0.01l-20.845,20.902l-0.865-10.722c-0.1-1.311-1.17-2.3-2.49-2.3h-3.01V74.217l21.03-22.542
				c0.951-1.036,0.871-2.61-0.13-3.53c-0.97-0.91-2.63-0.85-3.53,0.12l-18.358,19.686c-1.26-3.017-3.642-5.444-6.621-6.776
				c2.566-2.49,4.169-5.965,4.169-9.81c0-7.55-6.14-13.699-13.69-13.699c-7.55,0-13.69,6.149-13.69,13.699
				c0,5.581,3.368,10.388,8.178,12.517c-2.286,2.317-3.703,5.496-3.708,9.004v1.635l-24.162,31.23
				c-0.922-2.323-2.486-4.318-4.474-5.776c3.57-2.474,5.916-6.592,5.916-11.249c0-7.55-6.14-13.69-13.69-13.7
				c-7.55,0.01-13.69,6.15-13.69,13.7c0,4.659,2.348,8.778,5.92,11.252c-2.902,2.132-4.908,5.412-5.318,9.173l-24.066,15.149
				c-0.943-2.001-2.372-3.724-4.138-5.021c3.567-2.474,5.912-6.592,5.912-11.253c0-7.55-6.14-13.689-13.69-13.689
				c-7.54,0-13.69,6.14-13.69,13.689c0,4.662,2.349,8.781,5.918,11.254c-2.437,1.792-4.231,4.395-4.988,7.415
				c-9.477-7.303-15.191-18.586-15.379-30.619c-0.03-1.359-1.15-2.46-2.5-2.46c-1.401,0-2.521,1.125-2.5,2.53
				c0.23,14.4,7.46,27.85,19.34,35.97l0.63,0.433v3.618c0,1.38,1.12,2.5,2.5,2.5c1.38,0,2.5-1.12,2.5-2.5v-4.887
				c0-0.011,0-0.022,0-0.033v-1.351c0.01-4.5,3.67-8.17,8.17-8.18c4.5,0.01,8.17,3.68,8.18,8.18v29.56h-13.85
				c-1.38,0-2.5-1.119-2.5-2.489v-0.8c0-1.381-1.12-2.5-2.5-2.5c-1.38,0-2.5,1.119-2.5,2.5v0.8c0,2.881,1.642,5.383,4.036,6.635
				l-11.597,43.15l-24.549,17.943V19.666c0-5.08-4.13-9.221-9.21-9.221c-5.08,0-9.22,4.141-9.22,9.221v216.67
				c0,5.08,4.14,9.21,9.22,9.21h201.71c1.38,0,2.5-1.12,2.5-2.49c0-1.38-1.12-2.5-2.5-2.5H12.495c-2.33-0.01-4.22-1.9-4.22-4.22
				V19.666c0-2.32,1.89-4.211,4.22-4.221c2.32,0.01,4.21,1.9,4.22,4.221v209.949c0,0.009,0.003,0.018,0.003,0.026
				c0.006,1.405,1.212,2.474,2.497,2.474h224.29c2.32,0,4.22,1.891,4.22,4.221c0,2.319-1.9,4.21-4.22,4.22h-9.3
				c-1.38,0-2.5,1.12-2.5,2.5s1.12,2.5,2.5,2.5c0,0,0.01,0,0.01-0.01h9.29C248.585,245.545,252.725,241.416,252.725,236.335z
				 M58.295,108.025c0.01-4.78,3.91-8.68,8.69-8.689c4.79,0.01,8.69,3.909,8.7,8.689c-0.01,4.78-3.91,8.68-8.7,8.69
				C62.205,116.705,58.305,112.805,58.295,108.025z M121.565,178.225h-15.971l9.777-34.59h11.365h0.01h9.33v20.041L121.565,178.225z
				 M180.543,119.086l-19.833,19.887l3.241-32.558c6.495,0,9.934,0,15.574,0L180.543,119.086z M173.815,72.885v28.53h-13.85
				c-1.37,0-2.49-1.12-2.5-2.5v-26.03c0.01-4.311,3.53-7.83,7.84-7.83C170.857,65.055,173.815,68.919,173.815,72.885z
				 M152.995,51.365c0.01-4.79,3.91-8.689,8.69-8.699c4.78,0.01,8.68,3.909,8.69,8.699c-0.01,4.78-3.91,8.681-8.69,8.69
				C156.905,60.045,153.005,56.145,152.995,51.365z M158.929,106.335l-3.807,38.241l-14.047,14.086v-17.527
				c0-1.344-1.088-2.5-2.51-2.5h-9.33V112.71l23.23-30.024v16.23C152.474,102.693,155.289,105.826,158.929,106.335z M107.365,88.725
				c0.01-4.79,3.91-8.69,8.69-8.7c4.79,0.01,8.69,3.91,8.69,8.7c0,4.78-3.9,8.68-8.69,8.69
				C111.275,97.405,107.375,93.505,107.365,88.725z M107.885,110.585c0.01-4.5,3.67-8.17,8.17-8.17s8.17,3.67,8.18,8.17v28.05
				h-13.85c-1.38,0-2.5-1.13-2.5-2.5V110.585z M102.885,115.114v21.021c0,4.057,3.254,7.373,7.284,7.489l-9.78,34.601h-5.736
				l-3.699-16.8c-0.25-1.141-1.28-1.971-2.44-1.971h-8.35v-29.56c0-0.159-0.018-0.314-0.024-0.472L102.885,115.114z M62.798,164.455
				c0.047,0,14.877,0,14.877,0h8.83l3.031,13.771h-3.431c-0.54,0-1.05,0.17-1.48,0.479L52.699,202.04L62.798,164.455z"/>
		</g>
	</g>
</g>
</svg>
