<?xml version="1.0" encoding="iso-8859-1"?>
<!-- Generator: Adobe Illustrator 19.0.0, SVG Export Plug-In . SVG Version: 6.00 Build 0)  -->
<svg version="1.1" id="Layer_1" xmlns="http://www.w3.org/2000/svg" xmlns:xlink="http://www.w3.org/1999/xlink" x="0px" y="0px"
	 viewBox="0 0 512 512" style="enable-background:new 0 0 512 512;" xml:space="preserve">
<path style="fill:#2BA5F7;" d="M422.645,92.816l-0.012,0.012c0,0-79.911,29.253-69.286,82.363
	c7.119,35.594,30.126,58.458,40.272,78.2c-12.706,3.673-24.683,10.517-34.697,20.531c-31.634-31.634-82.926-31.634-114.56,0
	c-15.805,15.817-23.714,36.551-23.714,57.274c0,20.734,7.909,41.469,23.714,57.286l32.041,32.041
	c-10.277-1.4-20.77-2.13-31.443-2.13c-37.927,0-73.713,9.177-105.263,25.448h-0.012C65.53,405.614,14.813,328.3,14.813,239.117
	c0-10.912,0.766-21.656,2.237-32.16c6.724,11.749,15.709,21.105,24.384,28.248c15.973,13.149,26.86,31.263,32.352,51.22
	c5.288,19.227,15.422,35.403,26.25,48.253c36.803,43.682,107.884,2.919,87.939-50.622c-0.323-0.873-0.67-1.759-1.041-2.644
	c-4.846-11.605-13.376-19.777-23.235-25.532c-29.983-17.48-41.146-55.037-24.982-85.761s23.139-56.293-11.976-72.816
	c-19.849-9.332-40.057-10.589-58.135-6.066c19.275-22.972,42.964-42.115,69.753-56.137l0.012,0.012
	c31.861,16.678,68.126,26.118,106.591,26.118s74.73-9.44,106.591-26.118l0.012-0.012C378.963,49.444,403.119,69.15,422.645,92.816z"
	/>
<path style="fill:#2197D8;" d="M129.554,239.117c0-107.3,73.43-197.447,172.778-222.939c-18.34-4.706-37.562-7.21-57.371-7.21
	c-127.108,0-230.148,103.042-230.148,230.148s103.042,230.148,230.148,230.148c19.807,0,39.03-2.504,57.371-7.21
	C202.982,436.564,129.554,346.417,129.554,239.117z"/>
<g>
	<path style="fill:#9AD14B;" d="M314.475,458.581c-3.996,1.268-8.052,2.429-12.144,3.47c-0.586,0.156-1.173,0.299-1.759,0.443
		c-0.849,0.215-1.699,0.419-2.548,0.622c-0.275,0.072-0.562,0.132-0.861,0.191c-0.921,0.227-1.854,0.431-2.788,0.634
		c-0.514,0.12-1.041,0.227-1.567,0.335c-1.185,0.263-2.381,0.503-3.577,0.73c-1.101,0.215-2.201,0.419-3.302,0.61
		c-2.01,0.371-4.02,0.706-6.042,1.005c-1.053,0.168-2.106,0.323-3.171,0.467c-0.383,0.06-0.778,0.108-1.173,0.156
		c-1.101,0.156-2.201,0.287-3.302,0.419c-0.215,0.024-0.419,0.048-0.634,0.072c-0.981,0.12-1.974,0.227-2.967,0.323
		c-0.55,0.06-1.101,0.12-1.651,0.168c-0.024,0-0.06,0.012-0.084,0.012c-1.316,0.12-2.62,0.239-3.936,0.335
		c-1.352,0.108-2.704,0.203-4.068,0.275c-0.335,0.024-0.682,0.048-1.017,0.048c-1.125,0.072-2.261,0.132-3.398,0.168
		c-0.299,0.024-0.61,0.036-0.909,0.036c-1.352,0.06-2.716,0.096-4.08,0.12c-1.508,0.036-3.015,0.048-4.535,0.048
		c-0.993,0-1.986-0.012-2.979-0.024c-0.598,0-1.196-0.012-1.795-0.024c-0.73-0.012-1.472-0.036-2.201-0.06
		c-0.108,0-0.203,0-0.299-0.012c-0.909-0.024-1.807-0.06-2.704-0.096c-0.371-0.012-0.742-0.024-1.113-0.048
		c-1.005-0.048-2.022-0.108-3.027-0.168c-2.333-0.132-4.654-0.311-6.975-0.526c-1.065-0.096-2.142-0.203-3.206-0.311
		c-0.227-0.024-0.443-0.048-0.67-0.072c-0.838-0.096-1.675-0.191-2.513-0.287c-0.658-0.072-1.328-0.156-1.974-0.251
		c-0.909-0.108-1.819-0.227-2.728-0.359c-0.957-0.132-1.914-0.263-2.871-0.419c-1.137-0.168-2.261-0.347-3.374-0.55
		c-1.029-0.168-2.046-0.335-3.063-0.526c-0.191-0.036-0.383-0.072-0.562-0.096c-0.838-0.156-1.675-0.323-2.501-0.491
		c-0.311-0.048-0.61-0.108-0.909-0.179c-0.969-0.191-1.938-0.383-2.907-0.598c-0.67-0.132-1.328-0.287-1.986-0.431
		c-1.472-0.323-2.931-0.67-4.391-1.029c-0.921-0.215-1.843-0.455-2.764-0.694c-0.598-0.144-1.184-0.299-1.771-0.467
		c-0.646-0.156-1.292-0.335-1.938-0.514c-0.67-0.179-1.34-0.371-2.01-0.562c-0.814-0.227-1.615-0.467-2.417-0.706
		c-2.752-0.814-5.468-1.675-8.172-2.596c-0.885-0.299-1.771-0.61-2.656-0.921c-0.73-0.251-1.46-0.514-2.178-0.778
		c-3.697-1.34-7.334-2.764-10.936-4.295c-0.598-0.251-1.196-0.503-1.795-0.766c-2.106-0.909-4.2-1.854-6.269-2.824
		c-0.706-0.335-1.424-0.67-2.13-1.017c-1.843-0.885-3.661-1.795-5.48-2.728c23.797-12.276,50.011-20.507,77.733-23.821
		c9.021-1.077,18.21-1.627,27.53-1.627c10.672,0,21.165,0.73,31.443,2.13h0.012L314.475,458.581z"/>
	<path style="fill:#9AD14B;" d="M351.564,35.099l-0.012,0.012c-31.861,16.678-68.126,26.118-106.591,26.118
		c-9.835,0-19.526-0.622-29.038-1.819c-27.686-3.482-53.84-11.881-77.554-24.3l-0.012-0.012c1.914-1.005,3.829-1.974,5.779-2.919
		c1.089-0.538,2.189-1.065,3.302-1.579c2.8-1.316,5.623-2.572,8.483-3.769c0.634-0.275,1.268-0.538,1.902-0.79
		c1.878-0.766,3.769-1.519,5.671-2.237c1.651-0.622,3.314-1.232,4.989-1.819c0.706-0.251,1.4-0.491,2.106-0.73
		c0.275-0.096,0.538-0.191,0.814-0.275c0.562-0.191,1.113-0.371,1.675-0.562c2.441-0.802,4.905-1.567,7.394-2.285
		c0.945-0.287,1.902-0.55,2.86-0.814c0.838-0.239,1.675-0.467,2.513-0.682c1.089-0.299,2.178-0.574,3.278-0.849
		c0.514-0.132,1.029-0.251,1.543-0.371c0.766-0.191,1.543-0.371,2.321-0.55c4.116-0.957,8.267-1.795,12.467-2.525
		c0.538-0.096,1.065-0.179,1.603-0.263c1.902-0.323,3.805-0.61,5.719-0.873c0.263-0.036,0.526-0.072,0.79-0.108
		c0.634-0.096,1.28-0.179,1.914-0.251c0.06-0.012,0.108-0.024,0.168-0.024c0.562-0.072,1.113-0.144,1.675-0.203
		c3.29-0.407,6.604-0.73,9.93-0.981c1.137-0.084,2.261-0.168,3.398-0.227c1.184-0.072,2.369-0.144,3.553-0.191
		c0.897-0.048,1.795-0.084,2.692-0.108c1.017-0.036,2.046-0.072,3.087-0.084c0.67-0.024,1.34-0.036,1.998-0.036
		c0.993-0.012,1.986-0.024,2.979-0.024c1.496,0,3.003,0.012,4.499,0.048c1.184,0.012,2.381,0.048,3.565,0.096
		c0.802,0.024,1.603,0.06,2.393,0.096c0.251,0,0.503,0.012,0.754,0.036c1.041,0.048,2.07,0.096,3.099,0.168
		c2.082,0.12,4.152,0.275,6.222,0.467c0.766,0.06,1.531,0.132,2.297,0.215c0.443,0.036,0.885,0.084,1.316,0.132
		c0.443,0.036,0.873,0.084,1.316,0.144c2.776,0.299,5.528,0.658,8.267,1.053c0.885,0.132,1.747,0.263,2.62,0.407
		c0.61,0.096,1.232,0.191,1.842,0.299c0.586,0.096,1.161,0.191,1.735,0.299c0.981,0.168,1.95,0.347,2.919,0.526
		c1.28,0.239,2.56,0.491,3.829,0.754c0.79,0.168,1.579,0.324,2.369,0.503c0.658,0.144,1.316,0.287,1.974,0.443
		c0.79,0.179,1.579,0.359,2.369,0.55c0.526,0.12,1.065,0.251,1.591,0.383c0.646,0.156,1.28,0.311,1.914,0.479
		c0.156,0.036,0.311,0.072,0.467,0.12C319.595,20.598,336.094,26.999,351.564,35.099z"/>
	<path style="fill:#9AD14B;" d="M475.109,239.117c0,11.546-0.849,22.876-2.501,33.967c-15.697-15.267-36.061-22.888-56.412-22.888
		c-7.609,0-15.219,1.065-22.577,3.195c-10.146-19.741-33.154-42.605-40.272-78.2c-10.624-53.11,69.286-82.363,69.286-82.363
		l0.012-0.012C455.416,132.585,475.109,183.554,475.109,239.117z"/>
	<path style="fill:#9AD14B;" d="M157.68,349.453c-18.76,7.298-41.505,4.391-57.645-14.776c-10.828-12.85-20.962-29.026-26.25-48.253
		c-5.492-19.957-16.379-38.071-32.352-51.22c-8.674-7.143-17.66-16.499-24.384-28.248c0-0.012,0-0.012,0-0.025
		c0.191-1.352,0.395-2.716,0.61-4.056c0.431-2.716,0.909-5.42,1.424-8.1c0.263-1.34,0.538-2.68,0.826-4.02
		c0.251-1.208,0.526-2.417,0.802-3.613c0.275-1.184,0.55-2.357,0.849-3.518c0.12-0.514,0.239-1.041,0.383-1.555
		c0.658-2.608,1.376-5.205,2.13-7.765c0.203-0.718,0.419-1.436,0.634-2.142c0.168-0.55,0.335-1.089,0.503-1.639
		c0.347-1.101,0.694-2.189,1.053-3.278c0.359-1.089,0.718-2.166,1.101-3.242c0.491-1.46,1.005-2.919,1.543-4.367
		c0.455-1.22,0.909-2.417,1.364-3.625c0.036-0.084,0.072-0.179,0.12-0.287c0.407-1.041,0.814-2.082,1.244-3.111
		c0.096-0.275,0.203-0.538,0.323-0.814c0.467-1.125,0.933-2.237,1.412-3.35c0.514-1.22,1.053-2.441,1.603-3.661
		c0.634-1.424,1.292-2.836,1.962-4.247c0.479-0.993,0.945-1.986,1.436-2.967c0.586-1.196,1.184-2.381,1.795-3.565
		c0.491-0.957,0.993-1.914,1.496-2.859c0.742-1.4,1.508-2.8,2.273-4.176c0.646-1.149,1.292-2.285,1.95-3.422
		c0.598-1.017,1.196-2.034,1.807-3.039c0.79-1.328,1.603-2.644,2.441-3.96c0.526-0.838,1.053-1.675,1.591-2.501
		c1.615-2.477,3.266-4.929,4.965-7.346c0.526-0.742,1.065-1.484,1.591-2.225c1.484-2.046,2.991-4.068,4.535-6.066
		c0.359-0.467,0.718-0.933,1.089-1.388c0.849-1.089,1.711-2.166,2.596-3.242c0.61-0.754,1.22-1.496,1.854-2.237
		c0.084-0.108,0.168-0.203,0.251-0.311c18.078-4.523,38.286-3.266,58.135,6.066c25.054,11.785,28.679,28.188,22.84,47.786
		c-1.639,5.444-3.996,11.127-6.82,17.025c-1.268,2.632-2.62,5.3-4.044,8.004c-6.245,11.881-8.411,24.79-6.975,37.15
		c2.261,19.622,13.568,37.891,31.957,48.612c9.859,5.755,18.389,13.927,23.235,25.532c0.371,0.885,0.718,1.771,1.041,2.644
		C199.173,314.11,181.681,340.133,157.68,349.453z"/>
</g>
<g>
	<path style="fill:#90BC42;" d="M129.552,239.117c0,39.973,10.194,77.578,28.128,110.336c-18.76,7.298-41.505,4.391-57.645-14.776
		c-10.828-12.85-20.962-29.026-26.25-48.253c-5.492-19.957-16.379-38.071-32.352-51.22c-8.674-7.143-17.66-16.499-24.384-28.248
		c0-0.012,0-0.012,0-0.025c0.191-1.352,0.395-2.716,0.61-4.056c0.419-2.716,0.897-5.42,1.424-8.1c0.263-1.34,0.538-2.68,0.826-4.02
		c0.251-1.208,0.526-2.417,0.802-3.613c0.275-1.184,0.55-2.357,0.849-3.518c0.12-0.514,0.239-1.041,0.383-1.555
		c0.658-2.608,1.376-5.205,2.13-7.765c0.203-0.718,0.419-1.436,0.634-2.142c0.168-0.55,0.335-1.089,0.503-1.639
		c0.347-1.101,0.694-2.189,1.053-3.278c0.359-1.089,0.718-2.166,1.101-3.242c0.491-1.46,1.005-2.919,1.543-4.367
		c0.455-1.22,0.909-2.417,1.364-3.625c0.036-0.084,0.072-0.179,0.12-0.287c0.407-1.041,0.814-2.082,1.244-3.111
		c0.096-0.275,0.203-0.538,0.323-0.814c0.467-1.125,0.933-2.237,1.412-3.35c0.514-1.22,1.053-2.441,1.603-3.661
		c0.634-1.424,1.292-2.836,1.962-4.247c0.479-0.993,0.945-1.986,1.436-2.967c0.586-1.196,1.184-2.381,1.795-3.565
		c0.491-0.957,0.993-1.914,1.496-2.859c0.742-1.4,1.508-2.8,2.273-4.176c0.646-1.149,1.292-2.285,1.95-3.422
		c0.598-1.017,1.196-2.034,1.807-3.039c0.79-1.328,1.603-2.644,2.441-3.96c0.526-0.838,1.053-1.675,1.591-2.501
		c1.615-2.477,3.266-4.929,4.965-7.346c0.526-0.742,1.065-1.484,1.591-2.225c1.484-2.046,2.991-4.068,4.535-6.066
		c0.359-0.467,0.718-0.933,1.089-1.388c0.849-1.089,1.711-2.166,2.596-3.242c0.61-0.754,1.22-1.496,1.854-2.237
		c0.084-0.108,0.168-0.203,0.251-0.311c18.078-4.523,38.286-3.266,58.135,6.066c25.054,11.785,28.679,28.188,22.84,47.786
		c-2.501,5.563-4.774,11.235-6.82,17.025c-5.133,14.441-8.866,29.552-11.019,45.154
		C130.294,217.677,129.552,228.313,129.552,239.117z"/>
	<path style="fill:#90BC42;" d="M302.319,16.183c-32.029,8.22-61.354,23.151-86.395,43.228c-27.686-3.482-53.84-11.881-77.554-24.3
		l-0.012-0.012c1.914-1.005,3.829-1.974,5.779-2.919c1.089-0.538,2.189-1.065,3.302-1.579c2.8-1.316,5.623-2.572,8.483-3.769
		c0.634-0.275,1.268-0.538,1.902-0.79c1.878-0.766,3.769-1.519,5.671-2.237c1.651-0.622,3.314-1.232,4.989-1.819
		c0.706-0.251,1.4-0.491,2.106-0.73c0.275-0.096,0.538-0.191,0.814-0.275c0.562-0.191,1.113-0.371,1.675-0.562
		c2.441-0.802,4.905-1.567,7.394-2.285c0.945-0.287,1.902-0.55,2.86-0.814c0.838-0.239,1.675-0.467,2.513-0.682
		c1.089-0.299,2.178-0.574,3.278-0.849c0.514-0.132,1.029-0.251,1.543-0.371c0.766-0.191,1.543-0.371,2.321-0.55
		c4.116-0.957,8.267-1.795,12.467-2.525c0.538-0.096,1.065-0.179,1.603-0.263c1.902-0.323,3.805-0.61,5.719-0.873
		c0.263-0.036,0.526-0.072,0.79-0.108c0.634-0.096,1.28-0.179,1.914-0.251c0.06-0.012,0.108-0.024,0.167-0.024
		c0.562-0.072,1.113-0.144,1.675-0.203c3.29-0.407,6.604-0.73,9.931-0.981c1.137-0.084,2.261-0.168,3.398-0.227
		c1.184-0.072,2.369-0.144,3.553-0.191c0.897-0.048,1.795-0.084,2.692-0.108c1.017-0.036,2.046-0.072,3.087-0.084
		c0.67-0.024,1.34-0.036,1.998-0.036c0.993-0.012,1.986-0.024,2.979-0.024c1.496,0,3.003,0.012,4.499,0.048
		c1.184,0.012,2.381,0.048,3.565,0.096c0.802,0.024,1.603,0.06,2.393,0.096c0.251,0,0.503,0.012,0.754,0.036
		c1.041,0.048,2.07,0.096,3.099,0.168c2.082,0.12,4.152,0.275,6.221,0.467c0.766,0.06,1.531,0.132,2.297,0.215
		c0.443,0.036,0.885,0.084,1.316,0.132c0.443,0.036,0.873,0.084,1.316,0.144c2.776,0.299,5.528,0.658,8.267,1.053
		c0.885,0.132,1.747,0.263,2.62,0.407c0.61,0.096,1.232,0.191,1.843,0.299c0.586,0.096,1.161,0.191,1.735,0.299
		c0.981,0.168,1.95,0.347,2.919,0.526c1.28,0.239,2.56,0.491,3.829,0.754c0.79,0.168,1.579,0.324,2.369,0.503
		c0.658,0.144,1.316,0.287,1.974,0.443c0.79,0.179,1.579,0.359,2.369,0.55c0.526,0.12,1.065,0.251,1.591,0.383
		c0.646,0.156,1.28,0.311,1.914,0.479C302.008,16.099,302.163,16.135,302.319,16.183z"/>
	<path style="fill:#90BC42;" d="M302.331,462.051c-0.586,0.156-1.173,0.299-1.759,0.443c-0.849,0.215-1.699,0.419-2.548,0.622
		c-0.275,0.072-0.562,0.132-0.861,0.191c-0.921,0.227-1.854,0.431-2.788,0.634c-0.514,0.12-1.041,0.227-1.567,0.335
		c-1.185,0.263-2.381,0.503-3.577,0.73c-1.101,0.215-2.201,0.419-3.302,0.61c-2.01,0.371-4.02,0.706-6.042,1.005
		c-1.053,0.168-2.106,0.323-3.171,0.467c-0.383,0.06-0.778,0.108-1.173,0.156c-1.101,0.156-2.201,0.287-3.302,0.419
		c-0.215,0.024-0.419,0.048-0.634,0.072c-0.981,0.12-1.974,0.227-2.967,0.323c-0.55,0.06-1.101,0.12-1.651,0.168
		c-0.024,0-0.06,0.012-0.084,0.012c-1.316,0.12-2.62,0.239-3.936,0.335c-1.352,0.108-2.704,0.203-4.068,0.275
		c-0.335,0.024-0.682,0.048-1.017,0.048c-1.125,0.072-2.261,0.132-3.398,0.168c-0.299,0.024-0.61,0.036-0.909,0.036
		c-1.352,0.06-2.716,0.096-4.08,0.12c-1.508,0.036-3.015,0.048-4.535,0.048c-0.993,0-1.986-0.012-2.979-0.024
		c-0.598,0-1.196-0.012-1.795-0.024c-0.73-0.012-1.472-0.036-2.201-0.06c-0.108,0-0.203,0-0.299-0.012
		c-0.909-0.024-1.807-0.06-2.704-0.096c-0.371-0.012-0.742-0.024-1.113-0.048c-1.005-0.048-2.022-0.108-3.027-0.168
		c-2.333-0.132-4.666-0.311-6.975-0.526c-1.065-0.096-2.142-0.203-3.206-0.311c-0.227-0.024-0.443-0.048-0.67-0.072
		c-0.838-0.096-1.675-0.191-2.513-0.287c-0.658-0.072-1.328-0.156-1.974-0.251c-0.909-0.108-1.819-0.227-2.728-0.359
		c-0.957-0.132-1.914-0.263-2.871-0.419c-1.137-0.168-2.261-0.347-3.374-0.55c-1.029-0.168-2.046-0.335-3.063-0.526
		c-0.191-0.036-0.383-0.072-0.562-0.096c-0.838-0.156-1.675-0.323-2.501-0.491c-0.311-0.048-0.61-0.108-0.909-0.179
		c-0.969-0.191-1.938-0.383-2.907-0.598c-0.67-0.132-1.328-0.287-1.986-0.431c-1.472-0.323-2.931-0.67-4.391-1.029
		c-0.933-0.227-1.854-0.455-2.764-0.694c-0.598-0.144-1.184-0.299-1.771-0.467c-0.646-0.156-1.292-0.335-1.938-0.514
		c-0.67-0.179-1.34-0.371-2.01-0.562c-0.814-0.227-1.615-0.467-2.417-0.706c-2.752-0.814-5.468-1.675-8.172-2.596
		c-0.885-0.299-1.771-0.61-2.656-0.921c-0.73-0.251-1.46-0.514-2.178-0.778c-3.697-1.34-7.334-2.764-10.936-4.295
		c-0.598-0.251-1.196-0.503-1.795-0.766c-2.106-0.909-4.2-1.854-6.269-2.824c-0.706-0.335-1.424-0.67-2.13-1.017
		c-1.843-0.885-3.661-1.795-5.48-2.728c23.797-12.276,50.011-20.507,77.733-23.821C242.137,439.498,270.936,453.999,302.331,462.051
		z"/>
</g>
<path style="fill:#F95428;" d="M314.475,458.581l-38.059-38.059h-0.012l-32.041-32.041c-15.805-15.817-23.714-36.551-23.714-57.286
	c0-20.722,7.909-41.457,23.714-57.274c31.634-31.634,82.926-31.634,114.56,0c10.014-10.014,21.991-16.858,34.697-20.531
	c7.358-2.13,14.968-3.195,22.577-3.195c20.352,0,40.715,7.621,56.412,22.888c0.287,0.275,0.574,0.55,0.861,0.837
	c15.817,15.817,23.725,36.551,23.725,57.274c0,20.734-7.908,41.469-23.725,57.286L358.923,503.029L314.475,458.581z"/>
<path style="fill:#E54728;" d="M309.173,420.522h-0.007l-19.319-32.041c-9.53-15.817-14.299-36.551-14.299-57.286
	c0-20.722,4.769-41.457,14.299-57.274c7.352-12.193,16.467-19.666,25.983-22.46c-25.164-4.454-52.026,3.019-71.467,22.46
	c-15.805,15.817-23.714,36.551-23.714,57.274c0,20.734,7.909,41.469,23.714,57.286l32.041,32.041h0.012l38.059,38.059l44.448,44.448
	l-26.8-44.448L309.173,420.522z"/>
<g>
	<path style="fill:#FFFFFF;" d="M467.285,340.169c-4.957,0-8.973-4.018-8.973-8.973c0-11.244-4.381-21.818-12.339-29.775
		c-2.346-2.346-4.95-4.409-7.739-6.131c-4.217-2.602-5.526-8.131-2.924-12.349c2.603-4.217,8.131-5.529,12.349-2.924
		c3.972,2.452,7.675,5.383,11.004,8.713c11.346,11.345,17.595,26.426,17.595,42.465
		C476.258,336.151,472.242,340.169,467.285,340.169z"/>
	<path style="fill:#FFFFFF;" d="M337.769,304.048c-2.295,0-4.59-0.875-6.341-2.624c-7.97-7.96-18.551-12.344-29.792-12.344
		c-4.957,0-8.973-4.018-8.973-8.973s4.016-8.973,8.973-8.973c16.03,0,31.115,6.248,42.474,17.593
		c3.507,3.502,3.51,9.184,0.008,12.69C342.366,303.171,340.068,304.048,337.769,304.048z"/>
	<circle style="fill:#FFFFFF;" cx="244.961" cy="38.88" r="8.973"/>
	<circle style="fill:#FFFFFF;" cx="416.196" cy="280.112" r="8.973"/>
</g>
<path style="fill:#333333;" d="M482.097,269.977c1.316-10.169,1.983-20.526,1.983-30.855C484.079,107.27,376.809,0,244.957,0
	S5.834,107.27,5.834,239.122c0,44.76,12.443,88.405,35.986,126.218c22.892,36.766,55.313,66.672,93.764,86.483
	c33.55,17.285,71.369,26.421,109.372,26.421c22.799,0,45.301-3.203,66.975-9.513l40.641,40.641c1.753,1.752,4.05,2.629,6.346,2.629
	c2.296,0,4.593-0.876,6.346-2.629l114.55-114.55c16.993-16.993,26.352-39.588,26.352-63.62
	C506.166,308.276,497.632,286.672,482.097,269.977z M465.497,255.922c-14.524-9.555-31.517-14.694-49.304-14.694
	c-6.155,0-12.211,0.632-18.107,1.831c-2.718-4.503-5.833-9.099-9.08-13.878c-10.439-15.36-22.268-32.769-26.864-55.746
	c-7.431-37.142,40.416-62.035,57.599-69.683c29.062,37.438,46.391,84.415,46.391,135.371
	C466.132,244.728,465.917,250.341,465.497,255.922z M330.396,35.122c-26.902,11.237-56.087,17.13-85.433,17.13
	c-29.348,0-58.535-5.894-85.438-17.131c26.298-11.055,55.165-17.174,85.433-17.174C275.229,17.947,304.095,24.065,330.396,35.122z
	 M159.178,263.637c9.312,5.431,15.864,12.573,19.471,21.235c0.324,0.775,0.627,1.547,0.915,2.319
	c9.013,24.198-4.322,42.433-18.478,50.696c-15.557,9.08-38.344,9.818-54.192-8.995c-11.939-14.171-20.166-29.259-24.454-44.845
	c-6.216-22.589-18.422-41.876-35.301-55.774c-8.586-7.07-15.536-14.862-20.737-23.19c6.165-39.738,22.948-76.008,47.347-105.82
	c16.377-3.403,33.314-1.296,49.172,6.159c10.489,4.935,16.702,10.665,18.998,17.516c3.936,11.75-3.424,28.333-11.143,43.005
	C112.457,200.754,124.932,243.667,159.178,263.637z M23.781,239.122c0-2.686,0.066-5.356,0.162-8.02
	c3.594,3.831,7.523,7.512,11.787,11.024c14.008,11.535,24.177,27.677,29.405,46.681c4.982,18.103,14.414,35.479,28.034,51.647
	c13.038,15.477,29.339,21.682,45.034,21.682c11.472,0,22.62-3.317,31.931-8.75c21.767-12.705,38.326-40.038,26.25-72.457
	c-0.366-0.985-0.756-1.974-1.17-2.965c-5.145-12.35-14.228-22.386-26.995-29.832c-25.922-15.116-35.393-47.547-21.561-73.833
	c9.963-18.935,18.345-38.954,12.278-57.063c-3.935-11.743-13.216-20.92-28.377-28.054c-12.539-5.895-25.661-9.038-38.823-9.406
	c13.983-13.45,29.725-25.08,46.843-34.511c32.826,16.312,69.492,24.934,106.384,24.934c36.89,0,73.555-8.622,106.38-24.932
	c21.126,11.64,40.154,26.63,56.367,44.254c-7.868,3.76-18.63,9.574-29.08,17.393c-27.369,20.475-39.155,44.694-34.083,70.042
	c5.309,26.54,18.788,46.375,29.619,62.315c2.186,3.216,4.31,6.345,6.244,9.351c-7.69,3.335-14.923,7.742-21.489,13.181
	c-16.085-13.324-36.123-20.573-57.275-20.573c-24.033,0-46.627,9.359-63.621,26.352c-16.993,16.993-26.352,39.588-26.352,63.62
	s9.359,46.627,26.352,63.62l14.732,14.732c-2.601-0.084-5.201-0.129-7.797-0.129c-36.945,0-72.276,8.197-105.103,24.323
	C68.15,394.982,23.781,320.838,23.781,239.122z M244.957,460.297c-29.233,0-57.371-5.534-83.898-16.456
	c26.525-10.932,54.663-16.47,83.898-16.47c9.111,0,18.281,0.591,27.314,1.699l24.999,24.999
	C280.225,458.199,262.692,460.297,244.957,460.297z M467.122,382.131L358.918,490.336L250.714,382.131
	c-28.084-28.083-28.084-73.778,0-101.861c14.04-14.042,32.485-21.062,50.929-21.062c18.444,0,36.889,7.021,50.929,21.062
	c3.506,3.504,9.186,3.504,12.691,0c28.082-28.083,73.778-28.083,101.859,0C495.206,308.354,495.206,354.048,467.122,382.131z"/>
<path style="fill:#FFFFFF;" d="M443.749,224.197c-4.476,0-8.348-3.344-8.898-7.9c-4.392-36.419-18.99-70.568-42.215-98.755
	c-16.431-19.915-36.318-36.063-59.108-47.995c-19.911-10.427-41.186-17.176-63.236-20.061c-4.914-0.642-8.376-5.147-7.734-10.061
	c0.644-4.914,5.154-8.378,10.061-7.734c24.151,3.16,47.444,10.547,69.232,21.957c24.92,13.047,46.665,30.703,64.631,52.477
	c25.413,30.842,41.384,68.194,46.188,108.022c0.593,4.92-2.915,9.39-7.834,9.983C444.472,224.176,444.108,224.197,443.749,224.197z"
	/>
<g>
</g>
<g>
</g>
<g>
</g>
<g>
</g>
<g>
</g>
<g>
</g>
<g>
</g>
<g>
</g>
<g>
</g>
<g>
</g>
<g>
</g>
<g>
</g>
<g>
</g>
<g>
</g>
<g>
</g>
</svg>
