<?xml version="1.0" encoding="iso-8859-1"?>
<!-- Generator: Adobe Illustrator 19.0.0, SVG Export Plug-In . SVG Version: 6.00 Build 0)  -->
<svg xmlns="http://www.w3.org/2000/svg" xmlns:xlink="http://www.w3.org/1999/xlink" version="1.1" id="Layer_1" x="0px" y="0px" viewBox="0 0 512 512" style="enable-background:new 0 0 512 512;" xml:space="preserve">
<path style="fill:#E27849;" d="M361.07,411.756H152.008c-13.11,0-23.738-10.628-23.738-23.738V178.955  c0-13.11,10.628-23.738,23.738-23.738h209.063c13.109,0,23.737,10.628,23.737,23.738v209.063  C384.808,401.128,374.18,411.756,361.07,411.756z"/>
<g>
	<path style="fill:#DBA258;" d="M52.41,293.408c-25.997-4.635-44.865-27.167-44.865-53.577c0-30.015,24.419-54.434,54.434-54.434   c4.72,0,9.427,0.615,13.991,1.83l10.059,2.675l-4.5,9.385c-12.437,25.942-19.011,54.87-19.011,83.659   c0,0.329,0.006,0.665,0.014,1.001l0.014,0.88l0.109,10.406L52.41,293.408z"/>
	<path style="fill:#DBA258;" d="M449.457,284.835l0.013-0.855c0.006-0.344,0.013-0.688,0.013-1.033   c0-29.271-6.403-57.412-19.03-83.638l-4.514-9.378l10.052-2.694c4.558-1.221,9.28-1.841,14.032-1.841   c30.015,0,54.434,24.419,54.434,54.434c0,26.408-18.866,48.94-44.861,53.576l-10.236,1.826L449.457,284.835z"/>
</g>
<circle style="fill:#EABB71;" cx="256.022" cy="282.947" r="194.56"/>
<path style="fill:#DBA55D;" d="M125.584,282.947c0-96.53,70.304-176.626,162.498-191.915c-10.432-1.73-21.14-2.645-32.062-2.645  c-107.453,0-194.56,87.108-194.56,194.56s87.107,194.56,194.56,194.56c10.922,0,21.63-0.915,32.062-2.645  C195.888,459.573,125.584,379.477,125.584,282.947z"/>
<path style="fill:#E27849;" d="M255.99,423.613c-1.361,0-2.729-0.023-4.097-0.068c-61.624-2.074-112.083-51.943-114.876-113.531  c-0.192-4.248-0.161-8.537,0.093-12.748c0.288-4.773,3.063-8.809,7.425-10.795c1.17-0.531,3.04-1.163,5.336-1.163  c2.785,0,5.449,0.916,7.703,2.649c23.43,18.027,55.626,26.789,98.427,26.789s74.998-8.763,98.429-26.79  c2.264-1.739,4.92-2.656,7.686-2.656c1.801,0,3.639,0.403,5.315,1.166c4.386,1.998,7.176,6.066,7.464,10.884  c0.141,2.38,0.212,4.786,0.212,7.158c0,32.574-12.9,62.987-36.324,85.635C316.46,411.726,287.057,423.613,255.99,423.613z"/>
<path style="fill:#D35E2F;" d="M180.671,310.012c-0.128-2.84-0.148-5.698-0.077-8.539c-8.463-3.713-16.125-8.21-23.022-13.517  c-2.254-1.733-4.917-2.649-7.703-2.649c-2.296,0-4.166,0.631-5.336,1.163c-4.36,1.987-7.137,6.022-7.425,10.795  c-0.254,4.21-0.286,8.499-0.093,12.748c2.793,61.589,53.251,111.458,114.876,113.531c1.368,0.045,2.736,0.068,4.097,0.068  c7.416,0,14.736-0.686,21.889-2.01C224.539,411.63,183.191,365.597,180.671,310.012z"/>
<path style="fill:#F2B5D4;" d="M258.988,423.574c0.433-0.011,0.866-0.031,1.299-0.046c0.539-0.018,1.078-0.034,1.616-0.06  c0.72-0.036,1.439-0.081,2.158-0.129c0.234-0.015,0.469-0.027,0.703-0.044c0.891-0.065,1.781-0.14,2.668-0.224  c0.048-0.004,0.098-0.009,0.147-0.013c12.625-1.216,24.849-4.419,36.294-9.443l0.241-0.125l1.893-0.832  c3.012-1.394,5.963-2.922,8.853-4.569l-8.124-8.427c-12.401-12.864-30.895-20.241-50.734-20.241c-19.791,0-38.256,7.35-50.66,20.165  l-8.113,8.384c15.414,8.827,32.939,14.31,51.557,15.428c0.079,0.004,0.157,0.012,0.236,0.016c0.955,0.055,1.912,0.099,2.874,0.132  c1.367,0.045,2.729,0.068,4.09,0.068C256.987,423.612,257.989,423.599,258.988,423.574z"/>
<g>
	<path style="fill:#EFF7F6;" d="M223.124,312.75v32.204c0,1.77,1.435,3.206,3.206,3.206h27.004c1.77,0,3.206-1.435,3.206-3.206   V319.1l-0.04-4.358c-0.167,0-0.332,0.003-0.499,0.003C244.254,314.745,233.311,314.081,223.124,312.75z"/>
	<path style="fill:#EFF7F6;" d="M288.876,312.75c-10.187,1.33-21.13,1.995-32.876,1.995c-0.181,0-0.358-0.003-0.539-0.003v30.213   c0,1.77,1.435,3.206,3.206,3.206h27.005c1.77,0,3.206-1.435,3.206-3.206V312.75H288.876z"/>
</g>
<g>
	<path style="fill:#CCE2D9;" d="M239.072,344.612v-30.359c-5.511-0.332-10.825-0.832-15.947-1.502v32.204   c0,1.77,1.435,3.206,3.206,3.206h15.947C240.507,348.16,239.072,346.571,239.072,344.612z"/>
	<path style="fill:#CCE2D9;" d="M271.408,344.612v-30.279c-4.979,0.271-10.107,0.414-15.408,0.414c-0.181,0-0.358-0.003-0.539-0.003   v30.213c0,1.77,1.435,3.206,3.206,3.206h15.947C272.844,348.16,271.408,346.571,271.408,344.612z"/>
</g>
<g>
	<path style="fill:#C68436;" d="M180.547,240.371c-12.185,0-22.097-9.912-22.097-22.097c0-12.185,9.912-22.097,22.097-22.097   s22.097,9.912,22.097,22.097C202.644,230.458,192.732,240.371,180.547,240.371z"/>
	<path style="fill:#C68436;" d="M331.453,240.371c-12.185,0-22.097-9.912-22.097-22.097c0-12.185,9.912-22.097,22.097-22.097   s22.097,9.912,22.097,22.097C353.549,230.458,343.637,240.371,331.453,240.371z"/>
</g>
<path d="M370.565,279.602c-6.837-3.118-14.784-2.206-20.737,2.374C327.765,298.949,297.073,307.2,256,307.2  s-71.765-8.25-93.826-25.224c-5.958-4.584-13.916-5.495-20.767-2.374c-6.845,3.117-11.377,9.712-11.829,17.207  c-0.269,4.475-0.303,9.032-0.099,13.543c2.97,65.494,56.627,118.525,122.156,120.731c1.476,0.05,2.944,0.074,4.412,0.074  c33.046-0.001,64.143-12.546,87.981-35.594c24.908-24.081,38.625-56.42,38.625-91.058c0-2.522-0.075-5.08-0.226-7.602  C381.978,289.362,377.432,282.732,370.565,279.602z M264.084,323.265c0.059-0.001,0.117-0.004,0.177-0.005  c0.039-0.001,0.078-0.003,0.116-0.004c5.467-0.148,10.77-0.439,15.876-0.877v17.159h-16.168v-16.272H264.084z M231.747,322.378  c5.105,0.438,10.408,0.73,15.875,0.877c0.039,0.001,0.078,0.003,0.116,0.004c0.059,0.001,0.117,0.004,0.177,0.005v16.272h-16.168  V322.378z M299.945,405.936c-14.834,6.433-31.052,9.546-47.765,8.99c-14.383-0.484-28.11-3.778-40.643-9.344  c10.631-10.984,26.889-17.54,44.463-17.54c17.614,0,33.899,6.579,44.527,17.603C300.325,405.734,300.138,405.837,299.945,405.936z   M332.789,383.942c-5.452,5.272-11.342,9.912-17.583,13.891c-13.544-16.171-35.517-25.959-59.207-25.959  c-23.621,0-45.549,9.74-59.102,25.834c-29.457-18.808-49.592-51.175-51.266-88.086c-0.179-3.945-0.15-7.928,0.086-11.839  c0.134-2.206,1.717-3.159,2.392-3.467c0.348-0.158,0.985-0.387,1.761-0.387c0.732,0,1.589,0.204,2.445,0.861  c16.839,12.955,37.735,21.418,63.264,25.567v20.273c0,8.313,6.763,15.075,15.075,15.075h18.354c2.523,0,4.899-0.631,6.991-1.731  c2.092,1.101,4.468,1.731,6.991,1.731h18.353c8.313,0,15.075-6.763,15.075-15.075v-20.273c25.53-4.149,46.427-12.612,63.266-25.568  c1.69-1.299,3.337-0.856,4.17-0.476c0.686,0.313,2.294,1.284,2.43,3.551c0.13,2.203,0.197,4.439,0.197,6.642  C366.484,334.722,354.517,362.933,332.789,383.942z"/>
<path d="M180.547,240.371c12.185,0,22.097-9.912,22.097-22.097c0-12.185-9.912-22.097-22.097-22.097s-22.097,9.912-22.097,22.097  C158.451,230.458,168.363,240.371,180.547,240.371z"/>
<path d="M331.453,240.371c12.185,0,22.097-9.912,22.097-22.097c0-12.185-9.912-22.097-22.097-22.097s-22.097,9.912-22.097,22.097  C309.356,230.458,319.268,240.371,331.453,240.371z"/>
<path d="M450.021,177.853c-6.735,0-13.285,1.072-19.564,3.169c-32.022-54.599-88.93-92.902-155.035-99.236  c3.431-21.819,22.314-38.575,45.058-38.669c4.334-0.018,8.087-3.406,8.27-7.737c0.194-4.622-3.496-8.431-8.077-8.431  c-31.453,0-57.49,23.556-61.441,53.95c-1.078-0.017-2.15-0.055-3.233-0.055c-19.451,0-38.467,2.805-56.589,8.083  c0-25.172,20.408-45.666,45.548-45.808c4.361-0.025,8.157-3.38,8.341-7.738c0.193-4.623-3.498-8.431-8.078-8.431  c-34.176,0-61.979,27.803-61.979,61.979c0,1.807,0.095,3.59,0.247,5.357c-42.256,16.232-78.474,46.445-102.021,86.714  c-6.256-2.079-12.782-3.145-19.489-3.145C27.803,177.853,0,205.656,0,239.832c0,31.728,23.968,57.948,54.746,61.543  C64.097,404.945,151.128,485.053,256,485.053c50.478,0,96.681-18.61,132.134-49.32c3.549-3.075,3.759-8.513,0.438-11.834l0,0  c-3.016-3.016-7.829-3.133-11.053-0.343c-32.614,28.226-75.103,45.329-121.519,45.329c-98.711,0-180.257-77.136-185.647-175.607  v-0.001c-0.193-3.525-0.29-7-0.29-10.328c0-30.7,7.643-61.126,22.105-87.993c0-0.001,0.001-0.002,0.002-0.003  c21.105-39.207,54.962-68.76,94.859-84.687c8.667,23.564,31.261,40.453,57.751,40.639c4.209,0.029,7.99-2.945,8.47-7.126  c0.562-4.893-3.25-9.04-8.029-9.04c-19.632,0-36.412-12.415-42.919-29.804c17.161-5.171,35.216-7.923,53.696-7.923  c1.084,0,2.164,0.023,3.244,0.041c3.976,30.211,29.777,53.644,61.008,53.852c4.202,0.028,7.971-2.952,8.451-7.126  c0.562-4.893-3.249-9.041-8.029-9.041c-22.131,0-40.646-15.776-44.893-36.673c93.261,9.909,166.156,89.041,166.156,184.885  c0,40.852-13.245,78.669-35.664,109.384c-2.356,3.229-2.051,7.68,0.775,10.506l0,0c3.499,3.499,9.304,3.063,12.222-0.931  c20.988-28.729,34.593-63.176,37.986-100.532C488.034,297.777,512,271.558,512,239.832C512,205.656,484.197,177.853,450.021,177.853  z M53.895,282.947c0,0.646,0.022,1.317,0.028,1.971c-21.43-3.82-37.754-22.578-37.754-45.087c0-25.26,20.55-45.811,45.811-45.811  c4.027,0,7.962,0.526,11.775,1.54C60.752,222.679,53.895,252.689,53.895,282.947z M458.08,284.918  c0.006-0.658,0.025-1.312,0.025-1.97c0-31.278-7.144-60.919-19.884-87.38c3.819-1.023,7.763-1.547,11.8-1.547  c25.26,0,45.811,20.55,45.811,45.811C495.832,262.341,479.508,281.097,458.08,284.918z"/>
<g>
</g>
<g>
</g>
<g>
</g>
<g>
</g>
<g>
</g>
<g>
</g>
<g>
</g>
<g>
</g>
<g>
</g>
<g>
</g>
<g>
</g>
<g>
</g>
<g>
</g>
<g>
</g>
<g>
</g>
</svg>
