<svg xmlns="http://www.w3.org/2000/svg" viewBox="0 0 48 48"><defs><style>.cls-1{fill:#7c7d7d;}.cls-2{fill:#919191;}.cls-3{fill:#dad7e5;}.cls-4{fill:#edebf2;}.cls-5{fill:#fc6;}.cls-6{fill:#ffde76;}</style></defs><title>time is money</title><g id="time_is_money" data-name="time is money"><path class="cls-1" d="M39,1V3a2,2,0,0,1-2,2H11A2,2,0,0,1,9,3V1Z"/><path class="cls-2" d="M39,1V3H14a2,2,0,0,1-2-2Z"/><path class="cls-1" d="M39,45v2H9V45a2,2,0,0,1,2-2H37A2,2,0,0,1,39,45Z"/><path class="cls-2" d="M39,45H14a2,2,0,0,1-2-2c0-.1-1.26,0,25,0A2,2,0,0,1,39,45Z"/><path class="cls-3" d="M36,43H12l.46-7A15,15,0,0,1,20,24a15,15,0,0,1-7.54-12L12,5H36l-.46,7A15,15,0,0,1,28,24a15,15,0,0,1,7.54,12C35.94,42,35.84,40.48,36,43Z"/><path class="cls-4" d="M35.54,36l.33,5H18.34a3,3,0,0,1-3-3.2L15.46,36A15,15,0,0,1,23,24a15,15,0,0,1-7.54-12L15,5H36l-.46,7A15,15,0,0,1,28,24,15,15,0,0,1,35.54,36Z"/><path class="cls-5" d="M31.72,43H16.28l.18-2.69A11,11,0,0,1,22,31.47c2.18-1.22,2.1-1.09,4,0a11,11,0,0,1,5.52,8.84C31.61,41.23,31.57,40.63,31.72,43Z"/><path class="cls-6" d="M31.59,41H21a2.51,2.51,0,0,1-2.51-2.69,10.9,10.9,0,0,1,2.29-6A10.19,10.19,0,0,1,22,31.47c2.18-1.22,2.1-1.09,4,0C29.33,33.38,31.26,36.47,31.59,41Z"/><path class="cls-6" d="M24,13a1,1,0,1,1,1-1,1,1,0,0,0,1,1c1.66,0,1.21-3-1-3.82a1,1,0,1,0-2,0A3,3,0,0,0,24,15a1,1,0,1,1-1,1,1,1,0,0,0-1-1c-1.66,0-1.21,3,1,3.82a1,1,0,1,0,2,0A3,3,0,0,0,24,13Z"/><path class="cls-6" d="M24,28a1,1,0,1,1,.2-2A1,1,0,0,1,24,28Z"/><path class="cls-6" d="M24,24a1,1,0,1,1,.2-2A1,1,0,0,1,24,24Z"/></g></svg>