<?xml version="1.0" encoding="utf-8"?>
<!-- Generator: Adobe Illustrator 22.0.0, SVG Export Plug-In . SVG Version: 6.00 Build 0)  -->
<svg version="1.1" id="Icon_Set" xmlns="http://www.w3.org/2000/svg" xmlns:xlink="http://www.w3.org/1999/xlink" x="0px" y="0px"
	 viewBox="0 0 64 64" style="enable-background:new 0 0 64 64;" xml:space="preserve">
<style type="text/css">
	.st0{fill:#40C4FF;}
	.st1{fill:#263238;}
	.st2{fill:#FFD740;}
	.st3{fill:#FF5252;}
	.st4{fill:#4DB6AC;}
	.st5{fill:#FFFFFF;}
	.st6{fill:#4FC3F7;}
	.st7{fill:#37474F;}
</style>
<g>
	<g>
		<path class="st0" d="M59.251,54V34.919c0-1.235-0.457-2.427-1.284-3.345L54.751,28l-4.157,2.188
			c-3.286,1.729-5.343,5.136-5.343,8.849V54"/>
		<path class="st1" d="M59.25,54.5c-0.276,0-0.5-0.224-0.5-0.5V34.919c0-1.114-0.41-2.183-1.155-3.011l-2.957-3.285l-3.813,2.007
			c-3.131,1.648-5.076,4.87-5.076,8.407V54c0,0.276-0.224,0.5-0.5,0.5s-0.5-0.224-0.5-0.5V39.038c0-3.91,2.149-7.471,5.61-9.292
			l4.157-2.188c0.203-0.106,0.453-0.062,0.604,0.108l3.217,3.574c0.91,1.012,1.412,2.319,1.412,3.68V54
			C59.75,54.276,59.527,54.5,59.25,54.5z"/>
	</g>
	<g>
		<path class="st1" d="M30.75,9.5h-4c-0.276,0-0.5-0.224-0.5-0.5s0.224-0.5,0.5-0.5h4c0.276,0,0.5,0.224,0.5,0.5
			S31.027,9.5,30.75,9.5z"/>
	</g>
	<g>
		<path class="st1" d="M37.25,4.5h-4c-0.276,0-0.5-0.224-0.5-0.5s0.224-0.5,0.5-0.5h4c0.276,0,0.5,0.224,0.5,0.5
			S37.527,4.5,37.25,4.5z"/>
	</g>
	<g>
		<path class="st1" d="M35.25,6.5c-0.276,0-0.5-0.224-0.5-0.5V2c0-0.276,0.224-0.5,0.5-0.5s0.5,0.224,0.5,0.5v4
			C35.75,6.276,35.527,6.5,35.25,6.5z"/>
	</g>
	<g>
		<path class="st1" d="M28.75,11.5c-0.276,0-0.5-0.224-0.5-0.5V7c0-0.276,0.224-0.5,0.5-0.5s0.5,0.224,0.5,0.5v4
			C29.25,11.276,29.027,11.5,28.75,11.5z"/>
	</g>
	<g>
		<path class="st1" d="M11.75,27.5c-4.687,0-8.5-3.813-8.5-8.5s3.813-8.5,8.5-8.5s8.5,3.813,8.5,8.5S16.438,27.5,11.75,27.5z
			 M11.75,11.5c-4.136,0-7.5,3.364-7.5,7.5s3.364,7.5,7.5,7.5s7.5-3.364,7.5-7.5S15.886,11.5,11.75,11.5z"/>
	</g>
	<g>
		<path class="st2" d="M17.297,14.374l0.596-0.496C16.426,12.12,14.22,11,11.75,11c-4.418,0-8,3.582-8,8h0.755
			C9.179,19,13.705,17.363,17.297,14.374z"/>
		<path class="st1" d="M4.505,19.5H3.75c-0.276,0-0.5-0.224-0.5-0.5c0-4.687,3.813-8.5,8.5-8.5c2.526,0,4.905,1.115,6.527,3.058
			c0.085,0.102,0.126,0.233,0.114,0.366c-0.012,0.132-0.076,0.254-0.178,0.339l-0.596,0.496l0,0
			C13.942,17.816,9.286,19.5,4.505,19.5z M4.267,18.5h0.238c4.547,0,8.977-1.602,12.472-4.51l0.199-0.166
			c-1.414-1.483-3.364-2.325-5.426-2.325C7.783,11.5,4.525,14.597,4.267,18.5z M17.297,14.375h0.01H17.297z"/>
	</g>
	<g>
		<path class="st1" d="M30.603,56.5c-0.38,0-0.767-0.073-1.139-0.227c-0.266-0.076-0.395-0.344-0.319-0.609
			c0.076-0.266,0.379-0.408,0.643-0.335c1.077,0.441,2.247-0.046,2.667-1.064c0.205-0.494,0.205-1.038,0-1.532
			c-0.202-0.485-0.577-0.864-1.059-1.071c-0.038-0.014-0.074-0.032-0.109-0.055l-0.003-0.002c-0.214-0.143-0.285-0.424-0.164-0.651
			c0.121-0.228,0.395-0.324,0.632-0.227c0.742,0.306,1.319,0.882,1.627,1.623s0.308,1.557,0.001,2.298
			C32.901,55.801,31.781,56.499,30.603,56.5z"/>
	</g>
	<g>
		<path class="st1" d="M14.25,31h-0.338c-0.091,0-0.181-0.025-0.259-0.072L13.453,30.8c-0.091-0.059-0.182-0.119-0.279-0.17
			l-4.157-2.188C8.854,28.356,8.75,28.186,8.75,28v-1.404c0-0.16,0.077-0.311,0.207-0.405c0.129-0.095,0.297-0.119,0.449-0.07
			c1.528,0.503,3.159,0.503,4.688,0c0.154-0.049,0.32-0.024,0.449,0.07c0.13,0.094,0.207,0.245,0.207,0.405V30.5
			C14.75,30.776,14.527,31,14.25,31z M9.75,27.698l3.89,2.047c0.037,0.02,0.074,0.04,0.11,0.061v-2.548c-1.315,0.32-2.685,0.32-4,0
			V27.698z"/>
	</g>
	<g>
		<path class="st3" d="M13.408,30.188L9.25,28l-3.216,3.574c-0.826,0.918-1.284,2.11-1.284,3.345V54h14V39.037
			C18.75,35.325,16.693,31.917,13.408,30.188z"/>
		<path class="st1" d="M18.75,54.5h-14c-0.276,0-0.5-0.224-0.5-0.5V34.918c0-1.361,0.501-2.667,1.412-3.679l3.216-3.574
			c0.152-0.17,0.401-0.215,0.604-0.108l4.157,2.188l0,0c3.46,1.821,5.61,5.382,5.61,9.292V54C19.25,54.276,19.027,54.5,18.75,54.5z
			 M5.25,53.5h13V39.037c0-3.538-1.945-6.759-5.076-8.407l-3.813-2.007l-2.956,3.285c-0.745,0.828-1.155,1.897-1.155,3.01V53.5z"/>
	</g>
	<g>
		<path class="st1" d="M52.25,27.5c-4.687,0-8.5-3.813-8.5-8.5s3.813-8.5,8.5-8.5s8.5,3.813,8.5,8.5S56.938,27.5,52.25,27.5z
			 M52.25,11.5c-4.136,0-7.5,3.364-7.5,7.5s3.364,7.5,7.5,7.5s7.5-3.364,7.5-7.5S56.386,11.5,52.25,11.5z"/>
	</g>
	<g>
		<path class="st2" d="M46.703,14.374l-0.596-0.496C47.575,12.12,49.781,11,52.251,11c4.418,0,8,3.582,8,8h-0.755
			C54.822,19,50.296,17.363,46.703,14.374z"/>
		<path class="st1" d="M60.25,19.5h-0.755c-4.781,0-9.437-1.684-13.112-4.741l0,0l-0.596-0.496
			c-0.102-0.085-0.166-0.207-0.178-0.339c-0.012-0.132,0.029-0.264,0.114-0.366c1.622-1.943,4-3.058,6.527-3.058
			c4.687,0,8.5,3.813,8.5,8.5C60.75,19.276,60.527,19.5,60.25,19.5z M47.023,13.99c3.496,2.908,7.925,4.51,12.472,4.51h0.238
			c-0.258-3.903-3.516-7-7.483-7c-2.062,0-4.012,0.841-5.426,2.325L47.023,13.99z"/>
	</g>
	<g>
		<path class="st1" d="M36.212,55.539c-0.196,0-0.381-0.116-0.461-0.308l-1.924-4.615c-0.051-0.123-0.051-0.26-0.001-0.383
			c0.051-0.123,0.147-0.22,0.27-0.271l7.962-3.317c0.256-0.106,0.547,0.014,0.654,0.269s-0.014,0.548-0.269,0.654l-7.5,3.125
			l1.539,3.692l5.577-2.323c0.256-0.107,0.547,0.014,0.654,0.269c0.106,0.255-0.014,0.548-0.269,0.654L36.405,55.5
			C36.342,55.526,36.277,55.539,36.212,55.539z"/>
	</g>
	<g>
		<polyline class="st0" points="49.751,36.484 49.751,57 54.751,57 54.751,36.484 		"/>
		<path class="st1" d="M54.75,57.5h-5c-0.276,0-0.5-0.224-0.5-0.5V36.484c0-0.276,0.224-0.5,0.5-0.5s0.5,0.224,0.5,0.5V56.5h4
			V36.484c0-0.276,0.224-0.5,0.5-0.5s0.5,0.224,0.5,0.5V57C55.25,57.276,55.027,57.5,54.75,57.5z"/>
	</g>
	<g>
		<path class="st1" d="M50.088,31H49.75c-0.276,0-0.5-0.224-0.5-0.5v-3.904c0-0.16,0.077-0.311,0.207-0.405
			c0.129-0.095,0.296-0.119,0.449-0.07c1.528,0.503,3.159,0.503,4.688,0c0.154-0.049,0.32-0.024,0.449,0.07
			c0.13,0.094,0.207,0.245,0.207,0.405V28c0,0.186-0.103,0.356-0.267,0.442l-4.157,2.188c-0.097,0.051-0.188,0.111-0.278,0.17
			l-0.201,0.127C50.269,30.975,50.18,31,50.088,31z M50.25,27.259v2.548c0.036-0.021,0.072-0.042,0.109-0.061l3.891-2.047v-0.439
			C52.935,27.579,51.566,27.579,50.25,27.259z"/>
	</g>
	<g>
		<path class="st1" d="M45.25,62.5c-0.276,0-0.5-0.224-0.5-0.5v-8c0-0.276,0.224-0.5,0.5-0.5h4.5c0.276,0,0.5,0.224,0.5,0.5
			s-0.224,0.5-0.5,0.5h-4V62C45.75,62.276,45.527,62.5,45.25,62.5z"/>
	</g>
	<g>
		<path class="st1" d="M59.25,62.5c-0.276,0-0.5-0.224-0.5-0.5v-7.5h-4c-0.276,0-0.5-0.224-0.5-0.5s0.224-0.5,0.5-0.5h4.5
			c0.276,0,0.5,0.224,0.5,0.5v8C59.75,62.276,59.527,62.5,59.25,62.5z"/>
	</g>
	<g>
		<circle class="st4" cx="32" cy="34" r="7.5"/>
	</g>
	<g>
		<path class="st1" d="M30.763,36.829c-0.128,0-0.256-0.049-0.354-0.146l-2.829-2.829c-0.195-0.195-0.195-0.512,0-0.707
			s0.512-0.195,0.707,0l2.475,2.475l4.95-4.95c0.195-0.195,0.512-0.195,0.707,0s0.195,0.512,0,0.707l-5.303,5.303
			C31.019,36.78,30.891,36.829,30.763,36.829z"/>
	</g>
	<g>
		<path class="st5" d="M54.75,59.004L54.751,59c0.002,1.382-1.118,2.504-2.5,2.504h0c-1.379,0-2.498-1.117-2.5-2.496l-0.001-0.004"
			/>
		<path class="st1" d="M52.251,62.004c-1.652,0-2.998-1.344-3-2.996c-0.039-0.273,0.153-0.493,0.427-0.532
			c0.27-0.034,0.529,0.184,0.568,0.458c0.007,1.175,0.904,2.071,2.005,2.071c0.535,0,1.037-0.208,1.415-0.587
			c0.372-0.373,0.58-0.866,0.585-1.392c-0.001-0.027,0-0.055,0.003-0.083l0-0.004c0.033-0.262,0.271-0.45,0.527-0.437
			c0.263,0.016,0.469,0.234,0.469,0.499c0.001,0.802-0.311,1.557-0.877,2.125C53.807,61.691,53.053,62.004,52.251,62.004z"/>
	</g>
	<g>
		<path class="st3" d="M14.058,34.77l4.209,10.1c0.254,0.609,0.737,1.092,1.346,1.346l10.1,4.208l-1.924,4.615l-11.05-4.604
			c-1.217-0.507-2.185-1.475-2.692-2.692l-4.604-11.05"/>
		<path class="st1" d="M27.789,55.539c-0.064,0-0.129-0.012-0.192-0.039l-11.049-4.604c-1.348-0.562-2.399-1.613-2.961-2.961
			l-4.604-11.05c-0.106-0.255,0.014-0.548,0.269-0.654c0.256-0.106,0.547,0.015,0.654,0.269l4.604,11.05
			c0.46,1.103,1.32,1.964,2.423,2.423l10.588,4.412l1.539-3.692l-9.638-4.016c-0.735-0.306-1.309-0.88-1.615-1.616l-4.209-10.099
			c-0.106-0.255,0.014-0.548,0.269-0.654c0.254-0.106,0.547,0.014,0.654,0.269l4.209,10.1c0.204,0.491,0.586,0.873,1.077,1.077
			l10.1,4.208c0.123,0.051,0.219,0.148,0.27,0.271c0.05,0.123,0.05,0.26-0.001,0.383l-1.924,4.615
			C28.17,55.423,27.984,55.539,27.789,55.539z"/>
	</g>
	<g>
		<path class="st1" d="M4.75,62.5c-0.276,0-0.5-0.224-0.5-0.5v-8c0-0.276,0.224-0.5,0.5-0.5s0.5,0.224,0.5,0.5v8
			C5.25,62.276,5.027,62.5,4.75,62.5z"/>
	</g>
	<g>
		<path class="st1" d="M18.75,62.5c-0.276,0-0.5-0.224-0.5-0.5v-8c0-0.276,0.224-0.5,0.5-0.5s0.5,0.224,0.5,0.5v8
			C19.25,62.276,19.027,62.5,18.75,62.5z"/>
	</g>
</g>
</svg>
