<?xml version="1.0" encoding="utf-8"?>
<!-- Generator: Adobe Illustrator 22.0.0, SVG Export Plug-In . SVG Version: 6.00 Build 0)  -->
<svg version="1.1" id="Icon_Set" xmlns="http://www.w3.org/2000/svg" xmlns:xlink="http://www.w3.org/1999/xlink" x="0px" y="0px"
	 viewBox="0 0 64 64" style="enable-background:new 0 0 64 64;" xml:space="preserve">
<style type="text/css">
	.st0{fill:#40C4FF;}
	.st1{fill:#263238;}
	.st2{fill:#FFD740;}
	.st3{fill:#FF5252;}
	.st4{fill:#4DB6AC;}
	.st5{fill:#FFFFFF;}
	.st6{fill:#4FC3F7;}
	.st7{fill:#37474F;}
</style>
<g>
	<g>
		<path class="st1" d="M60,61H4c-0.276,0-0.5-0.224-0.5-0.5v-41C3.5,19.224,3.724,19,4,19s0.5,0.224,0.5,0.5V60H60
			c0.276,0,0.5,0.224,0.5,0.5S60.276,61,60,61z"/>
	</g>
	<g>
		<path class="st2" d="M20,60.5H10v-19c0-0.552,0.448-1,1-1h8c0.552,0,1,0.448,1,1V60.5z"/>
		<path class="st1" d="M20,61H10c-0.276,0-0.5-0.224-0.5-0.5v-19c0-0.827,0.673-1.5,1.5-1.5h8c0.827,0,1.5,0.673,1.5,1.5v19
			C20.5,60.776,20.276,61,20,61z M10.5,60h9V41.5c0-0.275-0.225-0.5-0.5-0.5h-8c-0.275,0-0.5,0.225-0.5,0.5V60z"/>
	</g>
	<g>
		<path class="st0" d="M36.5,60.5h-10V33c0-0.552,0.448-1,1-1h8c0.552,0,1,0.448,1,1V60.5z"/>
		<path class="st1" d="M36.5,61h-10c-0.276,0-0.5-0.224-0.5-0.5V33c0-0.827,0.673-1.5,1.5-1.5h8c0.827,0,1.5,0.673,1.5,1.5v27.5
			C37,60.776,36.776,61,36.5,61z M27,60h9V33c0-0.275-0.225-0.5-0.5-0.5h-8c-0.275,0-0.5,0.225-0.5,0.5V60z"/>
	</g>
	<g>
		<path class="st3" d="M53,60.5H43V24c0-0.552,0.448-1,1-1h8c0.552,0,1,0.448,1,1V60.5z"/>
		<path class="st1" d="M53,61H43c-0.276,0-0.5-0.224-0.5-0.5V24c0-0.827,0.673-1.5,1.5-1.5h8c0.827,0,1.5,0.673,1.5,1.5v36.5
			C53.5,60.776,53.276,61,53,61z M43.5,60h9V24c0-0.275-0.225-0.5-0.5-0.5h-8c-0.275,0-0.5,0.225-0.5,0.5V60z"/>
	</g>
	<g>
		<path class="st1" d="M21.031,6h-4c-0.276,0-0.5-0.224-0.5-0.5s0.224-0.5,0.5-0.5h4c0.276,0,0.5,0.224,0.5,0.5S21.308,6,21.031,6z"
			/>
	</g>
	<g>
		<path class="st1" d="M19.031,8c-0.276,0-0.5-0.224-0.5-0.5v-4c0-0.276,0.224-0.5,0.5-0.5s0.5,0.224,0.5,0.5v4
			C19.531,7.776,19.308,8,19.031,8z"/>
	</g>
	<g>
		<path class="st1" d="M14.031,12.5h-4c-0.276,0-0.5-0.224-0.5-0.5s0.224-0.5,0.5-0.5h4c0.276,0,0.5,0.224,0.5,0.5
			S14.308,12.5,14.031,12.5z"/>
	</g>
	<g>
		<path class="st1" d="M12.031,14.5c-0.276,0-0.5-0.224-0.5-0.5v-4c0-0.276,0.224-0.5,0.5-0.5s0.5,0.224,0.5,0.5v4
			C12.531,14.276,12.308,14.5,12.031,14.5z"/>
	</g>
	<g>
		<path class="st1" d="M15,34.5h-5c-0.276,0-0.5-0.224-0.5-0.5s0.224-0.5,0.5-0.5h4.774l7.351-8.331C22.22,25.062,22.356,25,22.5,25
			h8.766l7.351-8.82C38.711,16.065,38.852,16,39,16h9c0.276,0,0.5,0.224,0.5,0.5S48.276,17,48,17h-8.766l-7.351,8.82
			C31.789,25.935,31.648,26,31.5,26h-8.774l-7.351,8.331C15.28,34.438,15.144,34.5,15,34.5z"/>
	</g>
	<g>
		<circle class="st5" cx="31.5" cy="25.5" r="2.5"/>
		<path class="st1" d="M31.5,28.5c-1.654,0-3-1.346-3-3s1.346-3,3-3s3,1.346,3,3S33.154,28.5,31.5,28.5z M31.5,23.5
			c-1.103,0-2,0.897-2,2s0.897,2,2,2s2-0.897,2-2S32.603,23.5,31.5,23.5z"/>
	</g>
	<g>
		<circle class="st5" cx="15" cy="34" r="2.5"/>
		<path class="st1" d="M15,37c-1.654,0-3-1.346-3-3s1.346-3,3-3s3,1.346,3,3S16.654,37,15,37z M15,32c-1.103,0-2,0.897-2,2
			s0.897,2,2,2s2-0.897,2-2S16.103,32,15,32z"/>
	</g>
	<g>
		<circle class="st5" cx="48" cy="16.5" r="2.5"/>
		<path class="st1" d="M48,19.5c-1.654,0-3-1.346-3-3s1.346-3,3-3s3,1.346,3,3S49.654,19.5,48,19.5z M48,14.5c-1.103,0-2,0.897-2,2
			s0.897,2,2,2s2-0.897,2-2S49.103,14.5,48,14.5z"/>
	</g>
</g>
</svg>
