<?xml version="1.0" encoding="UTF-8"?>
<!DOCTYPE svg PUBLIC "-//W3C//DTD SVG 1.1//EN" "http://www.w3.org/Graphics/SVG/1.1/DTD/svg11.dtd">
<!-- Creator: CorelDRAW -->
<svg xmlns="http://www.w3.org/2000/svg" xml:space="preserve" width="2048px" height="2048px" style="shape-rendering:geometricPrecision; text-rendering:geometricPrecision; image-rendering:optimizeQuality; fill-rule:evenodd; clip-rule:evenodd"
viewBox="0 0 2048 2048"
 xmlns:xlink="http://www.w3.org/1999/xlink">
 <defs>
  <style type="text/css">
   <![CDATA[
    .fil2 {fill:none}
    .fil3 {fill:#E53935}
    .fil4 {fill:#EF5350}
    .fil1 {fill:#FB8C00}
    .fil0 {fill:#FFB74D}
   ]]>
  </style>
   <clipPath id="id0">
    <path d="M1024 -0.0011811c565.539,0 1024,458.462 1024,1024 0,565.539 -458.462,1024 -1024,1024 -565.539,0 -1024,-458.462 -1024,-1024 0,-565.539 458.462,-1024 1024,-1024z"/>
   </clipPath>
 </defs>
 <g id="Layer_x0020_1">
  <metadata id="CorelCorpID_0Corel-Layer"/>
  <path class="fil0" d="M1024 -0.0011811c565.539,0 1024,458.462 1024,1024 0,565.539 -458.462,1024 -1024,1024 -565.539,0 -1024,-458.462 -1024,-1024 0,-565.539 458.462,-1024 1024,-1024z"/>
  <g style="clip-path:url(#id0)">
   <g id="_466486160">
    <g>
     <polygon id="_4620350721" class="fil1" points="1573.61,553.354 2709.49,1689.24 2710.93,1691.13 2712.26,1693.08 2713.49,1695.08 2714.61,1697.13 2715.62,1699.22 2716.52,1701.35 2717.32,1703.51 2718.01,1705.71 2718.59,1707.93 2719.07,1710.17 2719.43,1712.43 2719.69,1714.7 2719.84,1716.98 2719.88,1719.27 2719.81,1721.55 2719.64,1723.83 2719.35,1726.11 2718.96,1728.37 2718.45,1730.61 2717.84,1732.84 2717.11,1735.03 2716.28,1737.2 2715.33,1739.34 2714.28,1741.43 2713.11,1743.49 2711.84,1745.5 2710.45,1747.45 2708.95,1749.35 2707.34,1751.2 1571.46,615.315 1573.07,613.472 1574.57,611.571 1575.96,609.613 1577.23,607.606 1578.4,605.552 1579.45,603.455 1580.4,601.321 1581.23,599.152 1581.95,596.954 1582.57,594.73 1583.07,592.486 1583.47,590.226 1583.76,587.952 1583.93,585.671 1584,583.385 1583.96,581.099 1583.81,578.819 1583.55,576.547 1583.19,574.288 1582.71,572.046 1582.13,569.827 1581.44,567.632 1580.64,565.469 1579.74,563.338 1578.73,561.247 1577.61,559.199 1576.38,557.197 1575.05,555.247 "/>
     <polygon id="_462037280" class="fil1" points="543.579,1214.98 1679.46,2350.86 1681.24,2352.55 545.357,1216.67 "/>
     <polygon id="_462033056" class="fil1" points="762.252,1495.92 1898.13,2631.81 1897.83,2632.14 1897.54,2632.48 1897.24,2632.81 1896.95,2633.14 1896.65,2633.46 1896.35,2633.79 1896.04,2634.11 1895.72,2634.44 759.843,1498.56 760.162,1498.23 760.47,1497.91 760.772,1497.58 761.069,1497.26 761.363,1496.93 761.657,1496.6 761.952,1496.26 "/>
     <polygon id="_462036296" class="fil1" points="759.843,1498.56 1895.72,2634.44 1894.03,2636.05 1892.29,2637.56 1890.49,2638.97 1888.63,2640.29 1886.74,2641.5 1884.8,2642.62 1882.81,2643.63 1880.8,2644.55 1878.75,2645.37 1876.67,2646.1 1874.57,2646.72 1872.44,2647.24 1870.3,2647.67 1868.15,2648 1865.98,2648.23 1863.81,2648.36 727.927,1512.47 730.099,1512.34 732.265,1512.11 734.421,1511.79 736.562,1511.36 738.686,1510.84 740.788,1510.21 742.867,1509.49 744.916,1508.67 746.932,1507.75 748.914,1506.73 750.856,1505.62 752.754,1504.4 754.606,1503.09 756.407,1501.68 758.154,1500.17 "/>
     <polygon id="_462044024" class="fil1" points="727.927,1512.47 1863.81,2648.36 1863.6,2648.36 727.716,1512.48 "/>
     <polygon id="_462037616" class="fil1" points="727.716,1512.48 1863.6,2648.36 1861.21,2648.38 1858.83,2648.28 1856.45,2648.07 1854.08,2647.73 1851.73,2647.27 1849.4,2646.7 1847.1,2646.01 1844.83,2645.2 1842.59,2644.27 1840.39,2643.22 1838.24,2642.05 1836.14,2640.77 1834.09,2639.36 1832.1,2637.84 1830.18,2636.2 694.294,1500.31 696.218,1501.96 698.207,1503.48 700.255,1504.88 702.357,1506.17 704.51,1507.33 706.707,1508.38 708.945,1509.31 711.218,1510.12 713.522,1510.82 715.851,1511.39 718.202,1511.85 720.567,1512.18 722.945,1512.4 725.33,1512.5 "/>
     <polygon id="_462042248" class="fil1" points="545.357,1216.67 1681.24,2352.55 1860.6,2531.91 724.717,1396.03 "/>
     <polygon id="_462045152" class="fil1" points="1571.46,615.315 2707.34,1751.2 1898.13,2631.81 762.252,1495.92 "/>
    </g>
    <path id="_466485728" class="fil1" d="M1501.36 550.856c17.7673,-19.3347 47.9717,-20.5866 67.291,-2.80866 19.3122,17.7721 20.563,47.9457 2.80748,67.2674l-809.21 880.609c-0.807875,0.905906 -1.54488,1.76693 -2.40945,2.63268 -8.84883,8.84764 -20.3185,13.4847 -31.9158,13.9169l-0.211417 0.00826772c-12.7205,0.416929 -25.5744,-4.22481 -35.2772,-13.9276l-214.484 -214.485c-18.6059,-18.6047 -18.6059,-48.7961 0,-67.402 18.6059,-18.6071 48.7973,-18.6071 67.402,0l179.36 179.361 2.99882 -3.26221 0.355512 -0.387402 773.293 -841.523z"/>
   </g>
  </g>
  <path class="fil2" d="M1024 -0.0011811c565.539,0 1024,458.462 1024,1024 0,565.539 -458.462,1024 -1024,1024 -565.539,0 -1024,-458.462 -1024,-1024 0,-565.539 458.462,-1024 1024,-1024z"/>
  <path class="fil3" d="M727.714 1392.77l0.356693 -0.387402 773.293 -841.523c17.7662,-19.3347 47.9717,-20.5866 67.2898,-2.80866 19.3134,17.7709 20.5642,47.9457 2.80866,67.2674l-809.21 880.609c-0.807875,0.905906 -1.54488,1.76693 -2.40945,2.6315 -8.84883,8.84883 -20.3185,13.4858 -31.9146,13.9181l-0.21378 0.00708662 0 -119.714z"/>
  <path class="fil4" d="M724.717 1396.03l2.99764 -3.26221 0 119.714c-12.7181,0.418111 -25.5721,-4.22244 -35.276,-13.9264l-214.484 -214.484c-18.6059,-18.6071 -18.6059,-48.7973 0,-67.4032 18.6059,-18.6059 48.7961,-18.6059 67.4032,0l179.359 179.361z"/>
 </g>
</svg>
